<svg version="1.1" id="Layer_1" xmlns="http://www.w3.org/2000/svg" xmlns:xlink="http://www.w3.org/1999/xlink" x="0px" y="0px"
	 width="100%" viewBox="0 0 512 512" enable-background="new 0 0 512 512" xml:space="preserve">
<path fill="#DC3027" opacity="1.000000" stroke="none" 
	d="
M1.000000,381.000000 
	C1.000000,294.645782 1.000000,208.291550 1.359844,121.323868 
	C6.534091,98.239517 26.156961,83.143196 51.177719,83.424164 
	C52.208187,84.136124 53.089230,84.577423 53.976952,85.013687 
	C53.983627,85.008644 53.981770,85.028816 54.021603,85.373901 
	C54.738091,86.633728 55.267715,87.722359 56.113274,88.437355 
	C70.509758,100.610809 84.989937,112.685532 99.358810,124.891342 
	C111.591202,135.282288 123.655205,145.871414 135.884018,156.266632 
	C152.770172,170.620865 169.681213,184.947403 186.724915,199.113373 
	C190.257004,202.049103 194.416611,204.229828 198.253967,206.815582 
	C198.220932,206.872635 198.096664,206.904572 198.090027,207.228455 
	C198.456863,208.024979 198.830322,208.497604 199.451874,209.231873 
	C198.996109,211.289246 198.688202,213.430450 197.494415,214.798691 
	C195.758240,216.788574 193.383560,218.221359 190.405045,220.587753 
	C195.652191,220.828613 200.584183,219.631485 203.214432,221.565216 
	C205.995773,223.610001 206.585327,228.636063 208.276840,232.707855 
	C209.955994,228.260681 211.483978,224.213867 213.053162,220.502960 
	C218.223694,225.464310 223.251205,230.209076 228.502930,234.691116 
	C240.579956,244.998123 252.802597,255.134308 264.897614,265.420380 
	C276.998932,275.711731 288.963165,286.164490 301.084595,296.431885 
	C317.490875,310.328705 333.995789,324.109009 350.446808,337.953094 
	C362.975189,348.496124 375.577362,358.954529 387.953827,369.673309 
	C392.251099,373.394958 395.969391,377.785126 399.524231,381.899506 
	C395.968231,381.635040 392.840271,381.085358 389.712006,381.083923 
	C260.141357,381.025238 130.570679,381.015686 1.000000,381.000000 
M59.692261,233.084610 
	C68.532921,226.874069 77.465912,220.788940 86.164322,214.385162 
	C89.221298,212.134628 91.246254,212.218781 94.341179,214.530167 
	C103.370964,221.273926 112.750107,227.549911 122.085068,234.373291 
	C122.210274,234.416321 122.335472,234.459366 122.460670,234.502411 
	C122.311691,234.330719 122.162712,234.159042 122.143639,233.189651 
	C119.917198,226.052887 117.649033,218.928787 115.479057,211.774887 
	C114.042839,207.040039 110.746178,201.643433 111.970932,197.684052 
	C113.118042,193.975693 119.104904,191.747879 122.989868,188.906723 
	C129.218643,184.351517 135.470490,179.827835 141.877518,175.170959 
	C141.084564,174.609512 140.837402,174.281708 140.588242,174.280197 
	C131.924408,174.227295 123.260384,174.191208 114.596367,174.181946 
	C102.299301,174.168808 102.390572,174.150803 98.808067,162.396179 
	C96.200142,153.839310 93.310982,145.368118 90.131302,135.578201 
	C86.390434,147.414764 82.849174,157.785873 79.902451,168.323273 
	C78.586205,173.030182 76.335518,174.466263 71.533852,174.298294 
	C60.658482,173.917847 49.760685,174.178604 37.348312,174.178604 
	C39.902336,176.082977 41.162148,177.069534 42.469109,177.989105 
	C50.367786,183.546494 58.138042,189.304321 66.247322,194.536224 
	C69.804169,196.830994 70.064590,198.957230 68.767044,202.677216 
	C65.269966,212.703110 62.235920,222.890503 58.708263,233.114395 
	C58.798042,233.068024 58.887825,233.021652 59.692261,233.084610 
M172.232880,263.084595 
	C172.900848,264.516022 173.568817,265.947449 174.236786,267.378876 
	C175.425766,256.884460 181.015228,252.705109 192.084457,254.558273 
	C182.671280,249.931229 179.105423,243.660004 184.026672,233.501434 
	C177.280258,241.103653 170.914383,242.046539 164.132935,235.341171 
	C164.026291,235.235718 163.580292,235.473480 163.034531,235.620682 
	C164.076569,239.404083 166.644394,243.615814 165.712387,246.804611 
	C164.810150,249.891525 160.306961,251.925949 156.718369,254.992661 
	C163.353622,255.637054 171.000732,252.752197 172.232880,263.084595 
z"/>
<path fill="#CE2420" opacity="1.000000" stroke="none" 
	d="
M399.952087,381.869995 
	C395.969391,377.785126 392.251099,373.394958 387.953827,369.673309 
	C375.577362,358.954529 362.975189,348.496124 350.446808,337.953094 
	C333.995789,324.109009 317.490875,310.328705 301.084595,296.431885 
	C288.963165,286.164490 276.998932,275.711731 264.897614,265.420380 
	C252.802597,255.134308 240.579956,244.998123 228.502930,234.691116 
	C223.251205,230.209076 218.223694,225.464310 213.506958,220.421844 
	C217.633362,220.004822 221.347153,220.004822 225.060928,220.004822 
	C225.498810,219.657944 225.936691,219.311081 226.374573,218.964203 
	C215.419083,215.597610 214.419403,208.624130 218.157013,199.949081 
	C218.217361,199.939468 218.113190,199.974747 217.651581,199.961212 
	C215.361832,201.178665 213.268280,202.257935 211.533966,203.753738 
	C208.727020,206.174652 206.220139,206.469772 203.251480,203.970551 
	C201.640335,202.614166 199.539764,201.839127 196.725403,200.286148 
	C197.456512,203.316376 197.871765,205.037460 198.287003,206.758514 
	C194.416611,204.229828 190.257004,202.049103 186.724915,199.113373 
	C169.681213,184.947403 152.770172,170.620865 135.884018,156.266632 
	C123.655205,145.871414 111.591202,135.282288 99.358810,124.891342 
	C84.989937,112.685532 70.509758,100.610809 56.113274,88.437355 
	C55.267715,87.722359 54.738091,86.633728 54.415588,85.367935 
	C82.930519,93.543930 111.076096,102.121735 139.261871,110.565353 
	C147.157486,112.930641 155.171463,114.900826 163.337173,117.340996 
	C169.954498,126.646027 162.054214,130.128876 156.477417,134.630844 
	C159.442947,134.706848 161.924866,134.536179 164.359970,134.102585 
	C168.080383,133.440186 170.266235,134.564957 171.104904,138.524185 
	C171.694473,141.307449 173.020050,143.934799 174.396835,147.659348 
	C176.005173,142.676239 176.148956,137.507462 178.741776,135.496750 
	C181.453583,133.393768 186.520874,134.335587 190.554794,133.910706 
	C190.781143,133.886856 190.973221,133.537506 191.417450,133.115051 
	C188.548233,131.045670 185.667938,129.122513 182.999817,126.939964 
	C182.296310,126.364487 182.248199,124.987808 182.303436,123.987946 
	C196.376816,128.017410 210.074402,131.943893 223.708984,136.078201 
	C251.630920,144.544754 279.503418,153.174271 307.424805,161.642609 
	C346.445129,173.477158 385.501251,185.193680 424.523621,197.021423 
	C454.030670,205.965042 483.508942,215.003662 513.000000,224.000000 
	C513.000000,276.354218 513.000000,328.708466 512.531372,381.525696 
	C474.692535,381.949158 437.322296,381.909576 399.952087,381.869995 
M217.364288,150.214386 
	C215.288437,151.794586 213.051376,153.205826 211.175522,154.995636 
	C208.535294,157.514771 206.241486,157.354324 203.506393,155.128845 
	C201.528412,153.519394 199.165985,152.382416 196.888260,150.730606 
	C196.796799,150.680298 196.705353,150.629974 196.613892,150.579666 
	C196.755600,150.709290 196.897308,150.838898 196.931213,151.751038 
	C197.254364,152.859406 197.380905,154.078674 197.933197,155.057785 
	C201.050156,160.583618 200.396774,165.025101 194.483353,168.150238 
	C193.194427,168.831390 191.978302,169.650314 190.728668,170.405792 
	C191.077148,170.829803 191.425629,171.253815 191.774124,171.677826 
	C195.780579,171.677826 200.825058,170.199478 203.508545,172.083664 
	C206.326828,174.062485 206.883423,179.262451 208.565247,183.390717 
	C209.370880,180.989014 210.451797,178.891525 210.734894,176.691391 
	C211.347595,171.929657 213.833313,170.310654 218.445694,170.850693 
	C220.444000,171.084671 222.536331,170.515472 225.975601,170.172531 
	C221.567551,167.144104 218.351471,164.934586 215.359207,162.878830 
	C216.277008,158.322250 217.118225,154.145874 218.239822,149.923874 
	C218.166885,149.961151 218.093964,149.998413 217.364288,150.214386 
z"/>
<path fill="#FFFFFF" opacity="0" stroke="none" 
	d="
M51.028297,83.153519 
	C26.156961,83.143196 6.534091,98.239517 1.359844,120.855209 
	C1.000000,81.023270 1.000000,41.046535 1.000000,1.034901 
	C171.544128,1.034901 342.088257,1.034901 513.000000,1.034901 
	C513.000000,40.686806 513.000000,80.374741 512.630005,120.406082 
	C508.747742,101.715675 490.010345,83.856361 467.885895,83.562820 
	C466.156372,83.119843 464.664215,82.984688 463.172058,82.984573 
	C328.776733,82.974358 194.381409,82.973946 59.986080,82.982132 
	C58.659309,82.982216 57.332546,83.105614 55.677887,83.111053 
	C54.909126,83.090881 54.468258,83.131096 53.658073,83.084526 
	C52.535275,83.049675 51.781784,83.101593 51.028297,83.153519 
z"/>
<path fill="#FFFFFF" opacity="0" stroke="none" 
	d="
M513.000000,393.000000 
	C513.000000,432.976715 513.000000,472.953400 513.000000,512.965088 
	C342.455994,512.965088 171.911957,512.965088 1.000000,512.965088 
	C1.000000,473.313202 1.000000,433.625244 1.378444,393.575470 
	C3.554159,403.052551 8.611522,411.290863 15.728378,417.873230 
	C25.710674,427.105835 38.154186,430.930542 51.629181,430.936096 
	C180.962463,430.989319 310.295776,430.991547 439.629059,430.925995 
	C450.385010,430.920532 461.173889,430.732025 471.888153,429.881500 
	C485.794006,428.777557 497.101898,422.178864 504.872650,410.662323 
	C508.449890,405.360657 510.343170,398.922729 513.000000,393.000000 
z"/>
<path fill="#B50808" opacity="1.000000" stroke="none" 
	d="
M54.027386,83.171303 
	C54.468258,83.131096 54.909126,83.090881 56.003342,83.364700 
	C60.472343,83.778824 64.288002,83.966347 68.103661,83.966347 
	C201.443527,83.966393 334.783386,83.948784 468.123260,83.933678 
	C490.010345,83.856361 508.747742,101.715675 512.630005,120.874741 
	C513.000000,155.020889 513.000000,189.041794 513.000000,223.531342 
	C483.508942,215.003662 454.030670,205.965042 424.523621,197.021423 
	C385.501251,185.193680 346.445129,173.477158 307.424805,161.642609 
	C279.503418,153.174271 251.630920,144.544754 223.708984,136.078201 
	C210.074402,131.943893 196.376816,128.017410 182.303558,123.583374 
	C182.564896,119.991714 183.230423,116.813538 183.918015,113.529991 
	C183.432861,113.602379 183.217743,113.567970 183.112946,113.659660 
	C177.545654,118.530434 171.913483,122.574776 165.141403,115.389244 
	C165.102859,115.348366 163.828430,116.472275 163.131149,117.052254 
	C155.171463,114.900826 147.157486,112.930641 139.261871,110.565353 
	C111.076096,102.121735 82.930519,93.543930 54.375755,85.022858 
	C53.981770,85.028816 53.983627,85.008644 53.986435,84.705536 
	C54.001957,83.992058 54.014671,83.581680 54.027386,83.171303 
z"/>
<path fill="#B50808" opacity="1.000000" stroke="none" 
	d="
M513.000000,392.541931 
	C510.343170,398.922729 508.449890,405.360657 504.872650,410.662323 
	C497.101898,422.178864 485.794006,428.777557 471.888153,429.881500 
	C461.173889,430.732025 450.385010,430.920532 439.629059,430.925995 
	C310.295776,430.991547 180.962463,430.989319 51.629181,430.936096 
	C38.154186,430.930542 25.710674,427.105835 15.728378,417.873230 
	C8.611522,411.290863 3.554159,403.052551 1.378444,393.106812 
	C1.000000,389.307098 1.000000,385.614166 1.000000,381.460632 
	C130.570679,381.015686 260.141357,381.025238 389.712006,381.083923 
	C392.840271,381.085358 395.968231,381.635040 399.524231,381.899475 
	C437.322296,381.909576 474.692535,381.949158 512.531372,381.994385 
	C513.000000,385.361298 513.000000,388.722565 513.000000,392.541931 
z"/>
<path fill="#F7CE2E" opacity="1.000000" stroke="none" 
	d="
M121.992294,234.009262 
	C112.750107,227.549911 103.370964,221.273926 94.341179,214.530167 
	C91.246254,212.218781 89.221298,212.134628 86.164322,214.385162 
	C77.465912,220.788940 68.532921,226.874069 59.344528,233.040527 
	C58.996799,232.996445 59.018101,233.013809 59.018105,233.013809 
	C62.235920,222.890503 65.269966,212.703110 68.767044,202.677216 
	C70.064590,198.957230 69.804169,196.830994 66.247322,194.536224 
	C58.138042,189.304321 50.367786,183.546494 42.469109,177.989105 
	C41.162148,177.069534 39.902336,176.082977 37.348312,174.178604 
	C49.760685,174.178604 60.658482,173.917847 71.533852,174.298294 
	C76.335518,174.466263 78.586205,173.030182 79.902451,168.323273 
	C82.849174,157.785873 86.390434,147.414764 90.131302,135.578201 
	C93.310982,145.368118 96.200142,153.839310 98.808067,162.396179 
	C102.390572,174.150803 102.299301,174.168808 114.596367,174.181946 
	C123.260384,174.191208 131.924408,174.227295 140.588242,174.280197 
	C140.837402,174.281708 141.084564,174.609512 141.877518,175.170959 
	C135.470490,179.827835 129.218643,184.351517 122.989868,188.906723 
	C119.104904,191.747879 113.118042,193.975693 111.970932,197.684052 
	C110.746178,201.643433 114.042839,207.040039 115.479057,211.774887 
	C117.649033,218.928787 119.917198,226.052887 122.072418,233.594238 
	C122.001205,233.998840 121.992294,234.009262 121.992294,234.009262 
z"/>
<path fill="#F7CC2E" opacity="1.000000" stroke="none" 
	d="
M172.125214,262.723969 
	C171.000732,252.752197 163.353622,255.637054 156.718369,254.992661 
	C160.306961,251.925949 164.810150,249.891525 165.712387,246.804611 
	C166.644394,243.615814 164.076569,239.404083 163.034531,235.620682 
	C163.580292,235.473480 164.026291,235.235718 164.132935,235.341171 
	C170.914383,242.046539 177.280258,241.103653 184.026672,233.501434 
	C179.105423,243.660004 182.671280,249.931229 192.084457,254.558273 
	C181.015228,252.705109 175.425766,256.884460 174.236786,267.378876 
	C173.568817,265.947449 172.900848,264.516022 172.125214,262.723969 
z"/>
<path fill="#F6CA2E" opacity="1.000000" stroke="none" 
	d="
M217.992508,199.993988 
	C214.419403,208.624130 215.419083,215.597610 226.374573,218.964203 
	C225.936691,219.311081 225.498810,219.657944 225.060928,220.004822 
	C221.347153,220.004822 217.633362,220.004822 213.465775,220.085938 
	C211.483978,224.213867 209.955994,228.260681 208.276840,232.707855 
	C206.585327,228.636063 205.995773,223.610001 203.214432,221.565216 
	C200.584183,219.631485 195.652191,220.828613 190.405045,220.587753 
	C193.383560,218.221359 195.758240,216.788574 197.494415,214.798691 
	C198.688202,213.430450 198.996109,211.289246 199.403595,208.920105 
	C198.770355,207.865997 198.433502,207.385284 198.096664,206.904572 
	C198.096664,206.904572 198.220932,206.872635 198.253967,206.815582 
	C197.871765,205.037460 197.456512,203.316376 196.725403,200.286148 
	C199.539764,201.839127 201.640335,202.614166 203.251480,203.970551 
	C206.220139,206.469772 208.727020,206.174652 211.533966,203.753738 
	C213.268280,202.257935 215.361832,201.178665 217.647308,199.956451 
	C218.000488,200.000504 217.992508,199.993988 217.992508,199.993988 
z"/>
<path fill="#CE2420" opacity="1.000000" stroke="none" 
	d="
M53.658073,83.084526 
	C54.014671,83.581680 54.001957,83.992058 53.979759,84.710587 
	C53.089230,84.577423 52.208187,84.136124 51.177719,83.424164 
	C51.781784,83.101593 52.535275,83.049675 53.658073,83.084526 
z"/>
<path fill="#CE2420" opacity="1.000000" stroke="none" 
	d="
M198.090027,207.228455 
	C198.433502,207.385284 198.770355,207.865997 199.155502,208.658478 
	C198.830322,208.497604 198.456863,208.024979 198.090027,207.228455 
z"/>
<path fill="#F7CE2E" opacity="1.000000" stroke="none" 
	d="
M58.987206,232.985855 
	C58.887825,233.021652 58.798042,233.068024 58.863182,233.064102 
	C59.018101,233.013809 58.996799,232.996445 58.987206,232.985855 
z"/>
<path fill="#F7CE2E" opacity="1.000000" stroke="none" 
	d="
M122.007469,233.993103 
	C122.162712,234.159042 122.311691,234.330719 122.460670,234.502411 
	C122.335472,234.459366 122.210274,234.416321 122.038681,234.191284 
	C121.992294,234.009262 122.001205,233.998840 122.007469,233.993103 
z"/>
<path fill="#F5B32E" opacity="1.000000" stroke="none" 
	d="
M163.337173,117.340996 
	C163.828430,116.472275 165.102859,115.348366 165.141403,115.389244 
	C171.913483,122.574776 177.545654,118.530434 183.112946,113.659660 
	C183.217743,113.567970 183.432861,113.602379 183.918015,113.529991 
	C183.230423,116.813538 182.564896,119.991714 181.899261,123.574463 
	C182.248199,124.987808 182.296310,126.364487 182.999817,126.939964 
	C185.667938,129.122513 188.548233,131.045670 191.417450,133.115051 
	C190.973221,133.537506 190.781143,133.886856 190.554794,133.910706 
	C186.520874,134.335587 181.453583,133.393768 178.741776,135.496750 
	C176.148956,137.507462 176.005173,142.676239 174.396835,147.659348 
	C173.020050,143.934799 171.694473,141.307449 171.104904,138.524185 
	C170.266235,134.564957 168.080383,133.440186 164.359970,134.102585 
	C161.924866,134.536179 159.442947,134.706848 156.477417,134.630844 
	C162.054214,130.128876 169.954498,126.646027 163.337173,117.340996 
z"/>
<path fill="#F5B32E" opacity="1.000000" stroke="none" 
	d="
M196.975006,151.034744 
	C199.165985,152.382416 201.528412,153.519394 203.506393,155.128845 
	C206.241486,157.354324 208.535294,157.514771 211.175522,154.995636 
	C213.051376,153.205826 215.288437,151.794586 217.679169,150.106750 
	C217.994034,149.999115 217.959457,149.969513 217.959442,149.969513 
	C217.118225,154.145874 216.277008,158.322250 215.359207,162.878830 
	C218.351471,164.934586 221.567551,167.144104 225.975601,170.172531 
	C222.536331,170.515472 220.444000,171.084671 218.445694,170.850693 
	C213.833313,170.310654 211.347595,171.929657 210.734894,176.691391 
	C210.451797,178.891525 209.370880,180.989014 208.565247,183.390717 
	C206.883423,179.262451 206.326828,174.062485 203.508545,172.083664 
	C200.825058,170.199478 195.780579,171.677826 191.774124,171.677826 
	C191.425629,171.253815 191.077148,170.829803 190.728668,170.405792 
	C191.978302,169.650314 193.194427,168.831390 194.483353,168.150238 
	C200.396774,165.025101 201.050156,160.583618 197.933197,155.057785 
	C197.380905,154.078674 197.254364,152.859406 196.967743,151.375015 
	C197.004272,150.998993 196.975006,151.034744 196.975006,151.034744 
z"/>
<path fill="#F5B32E" opacity="1.000000" stroke="none" 
	d="
M218.007538,150.017395 
	C218.093964,149.998413 218.166885,149.961151 218.099640,149.946686 
	C217.959457,149.969513 217.994034,149.999115 218.007538,150.017395 
z"/>
<path fill="#F5B32E" opacity="1.000000" stroke="none" 
	d="
M197.021637,150.983749 
	C196.897308,150.838898 196.755600,150.709290 196.613892,150.579666 
	C196.705353,150.629974 196.796799,150.680298 196.931641,150.882675 
	C196.975006,151.034744 197.004272,150.998993 197.021637,150.983749 
z"/>
<path fill="#F6CA2E" opacity="1.000000" stroke="none" 
	d="
M218.004761,200.005264 
	C218.113190,199.974747 218.217361,199.939468 218.157013,199.949081 
	C217.992508,199.993988 218.000488,200.000504 218.004761,200.005264 
z"/>
<path fill="#CE2420" opacity="1.000000" stroke="none" 
	d="
M467.885895,83.562820 
	C334.783386,83.948784 201.443527,83.966393 68.103661,83.966347 
	C64.288002,83.966347 60.472343,83.778824 56.331230,83.425095 
	C57.332546,83.105614 58.659309,82.982216 59.986080,82.982132 
	C194.381409,82.973946 328.776733,82.974358 463.172058,82.984573 
	C464.664215,82.984688 466.156372,83.119843 467.885895,83.562820 
z"/>
</svg>