<svg version="1.1" id="Layer_1" xmlns="http://www.w3.org/2000/svg" xmlns:xlink="http://www.w3.org/1999/xlink" x="0px" y="0px"
	 width="100%" viewBox="0 0 512 512" enable-background="new 0 0 512 512" xml:space="preserve">
<path fill="#FAB446" opacity="1.000000" stroke="none" 
	d="
M1.000000,201.000000 
	C1.000000,172.645767 1.000000,144.291550 1.275306,115.804947 
	C2.026199,115.047874 2.692594,114.492714 2.949277,113.788254 
	C8.396370,98.838989 22.720293,89.016441 38.051643,89.013977 
	C184.114716,88.990494 330.177795,88.997780 476.240875,89.023323 
	C478.194885,89.023659 480.197113,89.163460 482.095123,89.596420 
	C496.184265,92.810410 506.423950,100.551605 511.260864,114.608833 
	C511.362366,114.903770 512.399414,114.876793 513.000000,115.000000 
	C513.000000,143.354233 513.000000,171.708450 512.532166,200.531464 
	C341.709564,201.000153 171.354782,201.000076 1.000000,201.000000 
z"/>
<path fill="#73AF00" opacity="1.000000" stroke="none" 
	d="
M513.000000,313.000000 
	C513.000000,341.354218 513.000000,369.708466 512.653809,398.332825 
	C511.896332,399.087494 511.296021,399.506287 511.101257,400.066162 
	C505.641541,415.760895 489.320740,425.110443 474.479340,425.094421 
	C329.379059,424.937714 184.278549,424.966003 39.178158,425.050110 
	C23.823277,425.058990 9.113141,415.776062 2.965205,400.797638 
	C2.660271,400.054718 1.670753,399.592773 1.000002,399.000000 
	C1.000000,370.645782 1.000000,342.291534 1.467854,313.468262 
	C172.290466,312.999481 342.645233,312.999756 513.000000,313.000000 
z"/>
<path fill="#F5F5F5" opacity="1.000000" stroke="none" 
	d="
M513.000000,312.532166 
	C342.645233,312.999756 172.290466,312.999481 1.467854,312.999634 
	C1.000000,275.978577 1.000000,238.957138 1.000000,201.467850 
	C171.354782,201.000076 341.709564,201.000153 512.532166,201.000122 
	C513.000000,238.021439 513.000000,275.042877 513.000000,312.532166 
M285.976471,294.502838 
	C287.123016,293.536652 288.310425,292.614655 289.409912,291.597626 
	C304.830200,277.333862 308.820068,254.069382 299.097656,235.201050 
	C289.391510,216.364288 267.813599,206.060577 247.443558,210.535553 
	C228.224319,214.757736 213.746109,229.573532 210.253983,248.592270 
	C206.826569,267.258453 215.397583,286.784241 231.477692,296.942444 
	C248.360168,307.607513 268.559967,306.856964 285.976471,294.502838 
z"/>
<path fill="#000000" opacity="0" stroke="none" 
	d="
M1.000002,399.468658 
	C1.670753,399.592773 2.660271,400.054718 2.965205,400.797638 
	C9.113141,415.776062 23.823277,425.058990 39.178158,425.050110 
	C184.278549,424.966003 329.379059,424.937714 474.479340,425.094421 
	C489.320740,425.110443 505.641541,415.760895 511.101257,400.066162 
	C511.296021,399.506287 511.896332,399.087494 512.653809,398.801453 
	C513.000000,436.977509 513.000000,474.955048 513.000000,512.966309 
	C342.456787,512.966309 171.913574,512.966309 1.000000,512.966309 
	C1.000000,475.313263 1.000000,437.625275 1.000002,399.468658 
z"/>
<path fill="#000000" opacity="0" stroke="none" 
	d="
M513.000000,114.531342 
	C512.399414,114.876793 511.362366,114.903770 511.260864,114.608833 
	C506.423950,100.551605 496.184265,92.810410 482.095123,89.596420 
	C480.197113,89.163460 478.194885,89.023659 476.240875,89.023323 
	C330.177795,88.997780 184.114716,88.990494 38.051643,89.013977 
	C22.720293,89.016441 8.396370,98.838989 2.949277,113.788254 
	C2.692594,114.492714 2.026199,115.047874 1.275306,115.336288 
	C1.000000,77.022461 1.000000,39.044922 1.000000,1.033693 
	C171.543304,1.033693 342.086639,1.033693 513.000000,1.033693 
	C513.000000,38.686752 513.000000,76.374718 513.000000,114.531342 
z"/>
<path fill="#484E9F" opacity="1.000000" stroke="none" 
	d="
M285.689331,294.720825 
	C268.559967,306.856964 248.360168,307.607513 231.477692,296.942444 
	C215.397583,286.784241 206.826569,267.258453 210.253983,248.592270 
	C213.746109,229.573532 228.224319,214.757736 247.443558,210.535553 
	C267.813599,206.060577 289.391510,216.364288 299.097656,235.201050 
	C308.820068,254.069382 304.830200,277.333862 289.409912,291.597626 
	C288.310425,292.614655 287.123016,293.536652 285.689331,294.720825 
M290.172668,237.360947 
	C288.569794,235.143616 286.966949,232.926300 285.112762,230.361313 
	C279.204346,236.826691 273.830841,242.706696 268.457367,248.586700 
	C268.651031,248.943848 268.844666,249.301010 269.038330,249.658173 
	C276.691315,246.902298 284.344269,244.146423 292.202271,241.316711 
	C291.436340,239.741928 291.004883,238.854874 290.172668,237.360947 
M286.746185,270.731323 
	C280.786835,268.638611 274.827484,266.545898 268.868103,264.453186 
	C268.737122,264.788818 268.606110,265.124481 268.475128,265.460114 
	C273.905151,271.379211 279.335144,277.298309 285.295929,283.795959 
	C287.877014,279.831848 290.053070,276.489838 292.410645,272.868988 
	C290.228516,272.025879 288.848816,271.492798 286.746185,270.731323 
M272.012268,239.514160 
	C275.766357,236.090759 279.520477,232.667358 283.858337,228.711624 
	C279.845856,226.105194 276.501984,223.933060 272.809082,221.534210 
	C269.807861,229.825974 267.110138,237.279297 264.412415,244.732635 
	C264.687744,244.947495 264.963074,245.162354 265.238403,245.377213 
	C267.322784,243.584656 269.407135,241.792099 272.012268,239.514160 
M266.210907,274.371155 
	C268.361694,280.208588 270.512451,286.046021 272.935944,292.623688 
	C276.784973,289.956451 280.054291,287.690948 283.773468,285.113739 
	C277.128052,279.120361 271.192902,273.767578 265.257782,268.414795 
	C264.970459,268.782898 264.683167,269.150970 264.395844,269.519043 
	C264.928284,270.894348 265.460724,272.269623 266.210907,274.371155 
M238.596085,223.072433 
	C235.958405,224.922073 233.320709,226.771698 230.343338,228.859543 
	C236.852890,234.806168 242.721573,240.167358 248.590256,245.528534 
	C246.995880,237.675232 244.418747,230.377548 241.689819,223.137070 
	C241.551544,222.770187 240.104416,222.896622 238.596085,223.072433 
M230.937912,281.463898 
	C235.678314,276.239319 240.418716,271.014709 245.159134,265.790131 
	C244.912064,265.391876 244.665009,264.993591 244.417938,264.595306 
	C236.979172,267.270966 229.540421,269.946625 221.460754,272.852783 
	C223.673828,276.183075 225.361618,278.989960 227.370209,281.544647 
	C227.832153,282.132202 229.395355,281.853912 230.937912,281.463898 
M228.052551,231.548782 
	C225.936707,234.596878 223.820877,237.644989 221.382431,241.157837 
	C229.653091,244.109695 237.012527,246.736343 244.371979,249.362976 
	C244.701874,248.902390 245.031784,248.441803 245.361679,247.981216 
	C239.786972,242.369598 234.212265,236.757980 228.052551,231.548782 
M263.716003,236.176132 
	C265.983032,231.273697 268.250061,226.371246 270.908203,220.623016 
	C266.390411,219.757156 262.501740,219.011871 257.961700,218.141739 
	C258.409851,226.814667 258.811737,234.592682 259.213654,242.370712 
	C259.558289,242.465683 259.902954,242.560654 260.247589,242.655624 
	C261.280457,240.712341 262.313324,238.769058 263.716003,236.176132 
M226.355347,255.724701 
	C231.514969,255.388794 236.674606,255.052887 241.834229,254.716980 
	C241.971786,254.206924 242.109329,253.696869 242.246872,253.186813 
	C235.302750,249.919830 228.358643,246.652847 220.575089,242.990936 
	C219.712173,247.690445 218.996964,251.585526 218.225296,255.788055 
	C221.206726,255.788055 223.330780,255.788055 226.355347,255.724701 
M247.504562,275.028412 
	C248.089218,273.198120 248.673889,271.367859 249.258560,269.537567 
	C248.914612,269.307861 248.570648,269.078125 248.226700,268.848419 
	C242.423645,274.127747 236.620590,279.407074 230.188675,285.258484 
	C234.132431,287.835449 237.474304,290.019135 241.209793,292.460022 
	C243.401611,286.345825 245.302017,281.044525 247.504562,275.028412 
M218.590530,260.269196 
	C219.251236,263.626617 219.911957,266.984070 220.693497,270.955505 
	C228.275269,267.377075 235.065247,264.172363 242.102951,260.850739 
	C241.287231,259.986481 240.977325,259.355377 240.628281,259.332947 
	C233.666077,258.885345 226.700302,258.486786 219.730896,258.176056 
	C219.361954,258.159607 218.954514,259.007355 218.590530,260.269196 
M282.272034,258.756714 
	C278.656219,258.924927 275.040375,259.093170 271.424561,259.261383 
	C271.415833,259.731476 271.407135,260.201569 271.398438,260.671661 
	C278.487366,263.963165 285.576294,267.254700 293.437347,270.904724 
	C294.298370,266.246796 294.999420,262.454315 295.827148,257.976379 
	C291.065216,258.259155 287.129791,258.492828 282.272034,258.756714 
M291.261261,255.830536 
	C292.626251,255.748596 293.991241,255.666641 295.964203,255.548203 
	C294.956787,251.087326 294.107880,247.328308 293.170471,243.177399 
	C285.335754,246.843811 278.322388,250.125854 271.309021,253.407913 
	C271.334961,253.800217 271.360901,254.192520 271.386841,254.584824 
	C277.722229,254.983978 284.057648,255.383118 291.261261,255.830536 
M251.964676,274.359009 
	C249.112930,280.451141 246.261185,286.543304 243.041733,293.420959 
	C247.716232,294.292877 251.523224,295.002960 256.041870,295.845795 
	C255.585144,287.415985 255.171906,279.788727 254.700500,271.087982 
	C253.317444,272.537231 252.792328,273.087494 251.964676,274.359009 
M258.260345,288.593750 
	C258.260345,290.827301 258.260345,293.060852 258.260345,295.914795 
	C262.741577,294.973999 266.540558,294.176453 270.949829,293.250732 
	C267.281891,285.547943 264.002319,278.660675 260.722748,271.773407 
	C260.249634,271.886383 259.776489,271.999329 259.303375,272.112274 
	C258.972626,277.307831 258.641846,282.503357 258.260345,288.593750 
M255.232407,232.699219 
	C255.489349,228.099289 255.746307,223.499359 256.050812,218.048019 
	C251.371429,219.016235 247.459656,219.825638 243.015488,220.745178 
	C246.732071,228.499680 250.022064,235.364105 253.312057,242.228531 
	C253.937531,242.090439 254.563019,241.952362 255.188492,241.814270 
	C255.188492,239.083267 255.188492,236.352280 255.232407,232.699219 
M263.696167,259.778595 
	C264.538208,254.100327 262.656891,250.547424 258.305176,249.908936 
	C254.597565,249.364990 251.652802,250.817581 250.331161,254.324402 
	C248.956375,257.972260 249.896881,261.318115 253.505386,263.217957 
	C257.465424,265.302826 260.833710,264.276184 263.696167,259.778595 
z"/>
<path fill="#EDEDF1" opacity="1.000000" stroke="none" 
	d="
M290.373047,237.664398 
	C291.004883,238.854874 291.436340,239.741928 292.202271,241.316711 
	C284.344269,244.146423 276.691315,246.902298 269.038330,249.658173 
	C268.844666,249.301010 268.651031,248.943848 268.457367,248.586700 
	C273.830841,242.706696 279.204346,236.826691 285.112762,230.361313 
	C286.966949,232.926300 288.569794,235.143616 290.373047,237.664398 
z"/>
<path fill="#EDEDF1" opacity="1.000000" stroke="none" 
	d="
M287.107666,270.845520 
	C288.848816,271.492798 290.228516,272.025879 292.410645,272.868988 
	C290.053070,276.489838 287.877014,279.831848 285.295929,283.795959 
	C279.335144,277.298309 273.905151,271.379211 268.475128,265.460114 
	C268.606110,265.124481 268.737122,264.788818 268.868103,264.453186 
	C274.827484,266.545898 280.786835,268.638611 287.107666,270.845520 
z"/>
<path fill="#EDEDF1" opacity="1.000000" stroke="none" 
	d="
M271.751892,239.756851 
	C269.407135,241.792099 267.322784,243.584656 265.238403,245.377213 
	C264.963074,245.162354 264.687744,244.947495 264.412415,244.732635 
	C267.110138,237.279297 269.807861,229.825974 272.809082,221.534210 
	C276.501984,223.933060 279.845856,226.105194 283.858337,228.711624 
	C279.520477,232.667358 275.766357,236.090759 271.751892,239.756851 
z"/>
<path fill="#EDEDF1" opacity="1.000000" stroke="none" 
	d="
M266.102051,274.008057 
	C265.460724,272.269623 264.928284,270.894348 264.395844,269.519043 
	C264.683167,269.150970 264.970459,268.782898 265.257782,268.414795 
	C271.192902,273.767578 277.128052,279.120361 283.773468,285.113739 
	C280.054291,287.690948 276.784973,289.956451 272.935944,292.623688 
	C270.512451,286.046021 268.361694,280.208588 266.102051,274.008057 
z"/>
<path fill="#EDEDF1" opacity="1.000000" stroke="none" 
	d="
M238.931381,222.932892 
	C240.104416,222.896622 241.551544,222.770187 241.689819,223.137070 
	C244.418747,230.377548 246.995880,237.675232 248.590256,245.528534 
	C242.721573,240.167358 236.852890,234.806168 230.343338,228.859543 
	C233.320709,226.771698 235.958405,224.922073 238.931381,222.932892 
z"/>
<path fill="#EDEDF1" opacity="1.000000" stroke="none" 
	d="
M230.694824,281.718994 
	C229.395355,281.853912 227.832153,282.132202 227.370209,281.544647 
	C225.361618,278.989960 223.673828,276.183075 221.460754,272.852783 
	C229.540421,269.946625 236.979172,267.270966 244.417938,264.595306 
	C244.665009,264.993591 244.912064,265.391876 245.159134,265.790131 
	C240.418716,271.014709 235.678314,276.239319 230.694824,281.718994 
z"/>
<path fill="#EDEDF1" opacity="1.000000" stroke="none" 
	d="
M228.345062,231.347565 
	C234.212265,236.757980 239.786972,242.369598 245.361679,247.981216 
	C245.031784,248.441803 244.701874,248.902390 244.371979,249.362976 
	C237.012527,246.736343 229.653091,244.109695 221.382431,241.157837 
	C223.820877,237.644989 225.936707,234.596878 228.345062,231.347565 
z"/>
<path fill="#EDEDF1" opacity="1.000000" stroke="none" 
	d="
M263.531097,236.500946 
	C262.313324,238.769058 261.280457,240.712341 260.247589,242.655624 
	C259.902954,242.560654 259.558289,242.465683 259.213654,242.370712 
	C258.811737,234.592682 258.409851,226.814667 257.961700,218.141739 
	C262.501740,219.011871 266.390411,219.757156 270.908203,220.623016 
	C268.250061,226.371246 265.983032,231.273697 263.531097,236.500946 
z"/>
<path fill="#EDEDF1" opacity="1.000000" stroke="none" 
	d="
M225.905090,255.756378 
	C223.330780,255.788055 221.206726,255.788055 218.225296,255.788055 
	C218.996964,251.585526 219.712173,247.690445 220.575089,242.990936 
	C228.358643,246.652847 235.302750,249.919830 242.246872,253.186813 
	C242.109329,253.696869 241.971786,254.206924 241.834229,254.716980 
	C236.674606,255.052887 231.514969,255.388794 225.905090,255.756378 
z"/>
<path fill="#EDEDF1" opacity="1.000000" stroke="none" 
	d="
M247.353500,275.385803 
	C245.302017,281.044525 243.401611,286.345825 241.209793,292.460022 
	C237.474304,290.019135 234.132431,287.835449 230.188675,285.258484 
	C236.620590,279.407074 242.423645,274.127747 248.226700,268.848419 
	C248.570648,269.078125 248.914612,269.307861 249.258560,269.537567 
	C248.673889,271.367859 248.089218,273.198120 247.353500,275.385803 
z"/>
<path fill="#EDEDF1" opacity="1.000000" stroke="none" 
	d="
M218.577759,259.860992 
	C218.954514,259.007355 219.361954,258.159607 219.730896,258.176056 
	C226.700302,258.486786 233.666077,258.885345 240.628281,259.332947 
	C240.977325,259.355377 241.287231,259.986481 242.102951,260.850739 
	C235.065247,264.172363 228.275269,267.377075 220.693497,270.955505 
	C219.911957,266.984070 219.251236,263.626617 218.577759,259.860992 
z"/>
<path fill="#EEEEF1" opacity="1.000000" stroke="none" 
	d="
M282.733215,258.741638 
	C287.129791,258.492828 291.065216,258.259155 295.827148,257.976379 
	C294.999420,262.454315 294.298370,266.246796 293.437347,270.904724 
	C285.576294,267.254700 278.487366,263.963165 271.398438,260.671661 
	C271.407135,260.201569 271.415833,259.731476 271.424561,259.261383 
	C275.040375,259.093170 278.656219,258.924927 282.733215,258.741638 
z"/>
<path fill="#EDEEF1" opacity="1.000000" stroke="none" 
	d="
M290.827148,255.806396 
	C284.057648,255.383118 277.722229,254.983978 271.386841,254.584824 
	C271.360901,254.192520 271.334961,253.800217 271.309021,253.407913 
	C278.322388,250.125854 285.335754,246.843811 293.170471,243.177399 
	C294.107880,247.328308 294.956787,251.087326 295.964203,255.548203 
	C293.991241,255.666641 292.626251,255.748596 290.827148,255.806396 
z"/>
<path fill="#EDEDF1" opacity="1.000000" stroke="none" 
	d="
M252.115936,273.998383 
	C252.792328,273.087494 253.317444,272.537231 254.700500,271.087982 
	C255.171906,279.788727 255.585144,287.415985 256.041870,295.845795 
	C251.523224,295.002960 247.716232,294.292877 243.041733,293.420959 
	C246.261185,286.543304 249.112930,280.451141 252.115936,273.998383 
z"/>
<path fill="#EDEDF1" opacity="1.000000" stroke="none" 
	d="
M258.285706,288.146332 
	C258.641846,282.503357 258.972626,277.307831 259.303375,272.112274 
	C259.776489,271.999329 260.249634,271.886383 260.722748,271.773407 
	C264.002319,278.660675 267.281891,285.547943 270.949829,293.250732 
	C266.540558,294.176453 262.741577,294.973999 258.260345,295.914795 
	C258.260345,293.060852 258.260345,290.827301 258.285706,288.146332 
z"/>
<path fill="#EDEDF1" opacity="1.000000" stroke="none" 
	d="
M255.210449,233.160248 
	C255.188492,236.352280 255.188492,239.083267 255.188492,241.814270 
	C254.563019,241.952362 253.937531,242.090439 253.312057,242.228531 
	C250.022064,235.364105 246.732071,228.499680 243.015488,220.745178 
	C247.459656,219.825638 251.371429,219.016235 256.050812,218.048019 
	C255.746307,223.499359 255.489349,228.099289 255.210449,233.160248 
z"/>
<path fill="#E8E8EE" opacity="1.000000" stroke="none" 
	d="
M263.489410,260.125610 
	C260.833710,264.276184 257.465424,265.302826 253.505386,263.217957 
	C249.896881,261.318115 248.956375,257.972260 250.331161,254.324402 
	C251.652802,250.817581 254.597565,249.364990 258.305176,249.908936 
	C262.656891,250.547424 264.538208,254.100327 263.489410,260.125610 
M252.967575,258.224396 
	C254.087921,261.141449 256.429077,261.989532 258.879272,260.619446 
	C260.072693,259.952087 261.253143,257.419983 260.868927,256.245972 
	C260.404541,254.826965 257.777863,252.755554 256.971588,253.091232 
	C255.287048,253.792542 254.183136,255.888535 252.967575,258.224396 
z"/>
<path fill="#4D52A1" opacity="1.000000" stroke="none" 
	d="
M252.904144,257.817993 
	C254.183136,255.888535 255.287048,253.792542 256.971588,253.091232 
	C257.777863,252.755554 260.404541,254.826965 260.868927,256.245972 
	C261.253143,257.419983 260.072693,259.952087 258.879272,260.619446 
	C256.429077,261.989532 254.087921,261.141449 252.904144,257.817993 
z"/>
</svg>