<svg version="1.1" id="Layer_1" xmlns="http://www.w3.org/2000/svg" xmlns:xlink="http://www.w3.org/1999/xlink" x="0px" y="0px"
	 width="100%" viewBox="0 0 512 512" enable-background="new 0 0 512 512" xml:space="preserve">
<path fill="#000000" opacity="0" stroke="none" 
	d="
M43.000004,513.000000 
	C29.007650,513.000000 15.015299,513.000000 1.017211,513.000000 
	C1.011474,342.434235 1.011474,171.868469 1.011474,1.000000 
	C83.020645,1.000000 165.041672,1.000000 247.724182,1.331221 
	C239.786209,7.676151 238.833008,16.337337 238.873840,26.026899 
	C239.117966,83.958824 238.980255,141.892365 238.614227,199.905457 
	C234.217529,204.112946 229.279205,207.684769 226.314148,212.477386 
	C218.967728,224.351929 219.632965,236.466904 225.972321,248.499786 
	C230.934799,257.919220 239.467346,262.450317 248.414200,265.963837 
	C238.704956,266.993469 229.384171,267.582703 220.211685,269.080322 
	C201.085129,272.203186 183.126526,278.803406 166.009735,287.942383 
	C142.193771,300.658112 121.857971,317.313232 104.884995,338.414276 
	C89.755783,357.223145 78.710159,378.122162 71.209991,400.826569 
	C64.898125,419.933716 62.594147,439.878815 61.449986,459.987457 
	C56.520832,460.061523 51.907425,459.431519 47.612953,460.328522 
	C37.075798,462.529388 28.367413,471.948730 27.118767,482.500275 
	C25.803589,493.613983 29.778784,502.656738 39.230587,509.095093 
	C40.694458,510.092255 41.753658,511.683502 43.000004,513.000000 
z"/>
<path fill="#000000" opacity="0" stroke="none" 
	d="
M265.000000,0.999996 
	C347.621552,1.000000 430.243134,1.000000 512.932373,1.000000 
	C512.932373,171.666656 512.932373,342.333313 512.932373,513.000000 
	C499.255768,513.000000 485.596527,513.000000 471.174683,512.711365 
	C473.780731,509.612152 477.483337,507.114258 480.459381,503.936005 
	C492.271790,491.320648 488.171753,468.285126 470.439667,462.101440 
	C464.765930,460.122772 458.230255,460.615875 452.049316,459.530701 
	C451.008514,449.150360 450.247650,439.186066 448.956451,429.290985 
	C446.232666,408.417419 439.468079,388.831635 429.689758,370.212067 
	C418.336426,348.593353 403.777313,329.648987 385.254761,313.564972 
	C370.898071,301.098389 355.245636,290.913452 338.041046,283.022278 
	C314.902863,272.409576 290.709656,266.185089 265.254517,265.583893 
	C266.642517,264.949188 267.980072,264.843719 269.158142,264.354309 
	C287.003387,256.941010 295.855835,241.207397 291.826172,222.447906 
	C289.732178,212.699692 284.718323,204.330048 275.024109,199.371063 
	C275.059509,187.279816 275.105072,175.646393 275.536621,164.034500 
	C285.222748,165.702927 294.495331,168.501236 303.829620,168.725128 
	C317.609253,169.055618 331.432770,167.554565 345.643799,166.890350 
	C369.349335,162.910263 392.648712,158.873276 416.369202,154.902740 
	C422.803253,154.312759 428.828217,153.015198 434.826630,153.128250 
	C449.012573,153.395538 463.197723,154.154404 477.358490,155.088745 
	C482.963379,155.458557 486.884644,152.478165 486.912231,145.882095 
	C487.084961,104.597885 487.019043,63.312569 486.971558,22.027691 
	C486.966339,17.508112 484.765839,14.044832 480.261902,13.070639 
	C462.151489,9.153402 443.829834,8.270634 425.402130,10.096152 
	C422.210083,10.412373 419.090149,11.456195 415.506042,12.094493 
	C407.403107,13.154331 399.707825,14.147187 392.064667,15.446533 
	C381.913605,17.172222 371.800385,19.122002 361.676361,21.004988 
	C356.172729,22.028622 350.680420,23.113310 344.735474,24.105024 
	C339.851410,24.391369 335.414459,25.043674 330.978485,25.037060 
	C318.961517,25.019142 306.923767,25.086521 294.936584,24.390848 
	C288.290466,24.005144 281.729156,22.158739 275.079407,20.540501 
	C273.550659,15.432935 272.432678,10.593642 270.435974,6.149087 
	C269.490112,4.043630 266.864563,2.692743 265.000000,0.999996 
z"/>
<path fill="#95A5A5" opacity="1.000000" stroke="none" 
	d="
M452.088928,459.978088 
	C458.230255,460.615875 464.765930,460.122772 470.439667,462.101440 
	C488.171753,468.285126 492.271790,491.320648 480.459381,503.936005 
	C477.483337,507.114258 473.780731,509.612152 470.705994,512.711365 
	C328.645782,513.000000 186.291550,513.000000 43.468662,513.000000 
	C41.753658,511.683502 40.694458,510.092255 39.230587,509.095093 
	C29.778784,502.656738 25.803589,493.613983 27.118767,482.500275 
	C28.367413,471.948730 37.075798,462.529388 47.612953,460.328522 
	C51.907425,459.431519 56.520832,460.061523 61.924362,459.994080 
	C192.602707,459.986908 322.345825,459.982483 452.088928,459.978088 
z"/>
<path fill="#A46A43" opacity="1.000000" stroke="none" 
	d="
M264.532410,0.999996 
	C266.864563,2.692743 269.490112,4.043630 270.435974,6.149087 
	C272.432678,10.593642 273.550659,15.432935 274.996460,21.004154 
	C274.939362,68.444138 274.913605,114.990242 274.901459,161.536346 
	C274.901245,162.361877 275.063934,163.187439 275.150635,164.012985 
	C275.105072,175.646393 275.059509,187.279816 274.680695,199.289062 
	C262.526886,193.485199 250.736938,194.049057 238.970612,199.825363 
	C238.980255,141.892365 239.117966,83.958824 238.873840,26.026899 
	C238.833008,16.337337 239.786209,7.676151 248.192841,1.331221 
	C253.354935,1.000000 258.709869,1.000000 264.532410,0.999996 
z"/>
<path fill="#BDC3C7" opacity="1.000000" stroke="none" 
	d="
M452.049316,459.530701 
	C322.345825,459.982483 192.602707,459.986908 62.385216,459.984680 
	C62.594147,439.878815 64.898125,419.933716 71.209991,400.826569 
	C78.710159,378.122162 89.755783,357.223145 104.884995,338.414276 
	C121.857971,317.313232 142.193771,300.658112 166.009735,287.942383 
	C183.126526,278.803406 201.085129,272.203186 220.211685,269.080322 
	C229.384171,267.582703 238.704956,266.993469 248.889557,265.982788 
	C254.923630,265.960022 260.026764,265.947296 265.129883,265.934570 
	C290.709656,266.185089 314.902863,272.409576 338.041046,283.022278 
	C355.245636,290.913452 370.898071,301.098389 385.254761,313.564972 
	C403.777313,329.648987 418.336426,348.593353 429.689758,370.212067 
	C439.468079,388.831635 446.232666,408.417419 448.956451,429.290985 
	C450.247650,439.186066 451.008514,449.150360 452.049316,459.530701 
M118.537148,402.125061 
	C122.150658,395.193146 125.499580,388.106934 129.433701,381.362030 
	C137.209442,368.030701 147.617874,356.869568 158.925720,346.459503 
	C163.145554,342.574707 163.182312,337.290314 159.624207,333.610016 
	C156.069321,329.933105 150.949829,329.919464 146.732941,333.834351 
	C142.722092,337.557983 138.810272,341.400848 135.032028,345.360321 
	C114.222435,367.167999 100.531303,392.820190 93.739830,422.175781 
	C92.418625,427.886597 94.596924,432.688721 99.117798,433.878967 
	C104.672523,435.341309 108.845161,432.627991 110.704620,426.564209 
	C113.138481,418.627319 115.709702,410.732544 118.537148,402.125061 
M185.626160,315.358154 
	C182.747238,310.648529 179.080826,308.769867 174.975204,310.317627 
	C171.084518,311.784332 168.642441,314.492798 168.938385,319.033081 
	C169.238388,323.635986 171.682098,326.432251 176.063934,327.464233 
	C182.004532,328.863251 186.347717,323.792542 185.626160,315.358154 
z"/>
<path fill="#95A5A5" opacity="1.000000" stroke="none" 
	d="
M265.254517,265.583893 
	C260.026764,265.947296 254.923630,265.960022 249.345154,265.953766 
	C239.467346,262.450317 230.934799,257.919220 225.972321,248.499786 
	C219.632965,236.466904 218.967728,224.351929 226.314148,212.477386 
	C229.279205,207.684769 234.217529,204.112946 238.614227,199.905457 
	C250.736938,194.049057 262.526886,193.485199 274.690857,199.746887 
	C284.718323,204.330048 289.732178,212.699692 291.826172,222.447906 
	C295.855835,241.207397 287.003387,256.941010 269.158142,264.354309 
	C267.980072,264.843719 266.642517,264.949188 265.254517,265.583893 
z"/>
<path fill="#EBF0F0" opacity="1.000000" stroke="none" 
	d="
M345.183014,24.170456 
	C350.680420,23.113310 356.172729,22.028622 361.676361,21.004988 
	C371.800385,19.122002 381.913605,17.172222 392.064667,15.446533 
	C399.707825,14.147187 407.403107,13.154331 415.508972,12.552259 
	C415.944519,60.331745 415.946320,107.584015 415.948090,154.836288 
	C392.648712,158.873276 369.349335,162.910263 345.629089,166.431900 
	C345.199829,118.667862 345.191437,71.419159 345.183014,24.170456 
z"/>
<path fill="#E64C3C" opacity="1.000000" stroke="none" 
	d="
M416.369202,154.902740 
	C415.946320,107.584015 415.944519,60.331745 415.939819,12.621704 
	C419.090149,11.456195 422.210083,10.412373 425.402130,10.096152 
	C443.829834,8.270634 462.151489,9.153402 480.261902,13.070639 
	C484.765839,14.044832 486.966339,17.508112 486.971558,22.027691 
	C487.019043,63.312569 487.084961,104.597885 486.912231,145.882095 
	C486.884644,152.478165 482.963379,155.458557 477.358490,155.088745 
	C463.197723,154.154404 449.012573,153.395538 434.826630,153.128250 
	C428.828217,153.015198 422.803253,154.312759 416.369202,154.902740 
z"/>
<path fill="#24AE5F" opacity="1.000000" stroke="none" 
	d="
M344.735474,24.105022 
	C345.191437,71.419159 345.199829,118.667862 345.222931,166.375031 
	C331.432770,167.554565 317.609253,169.055618 303.829620,168.725128 
	C294.495331,168.501236 285.222748,165.702927 275.536621,164.034500 
	C275.063934,163.187439 274.901245,162.361877 274.901459,161.536346 
	C274.913605,114.990242 274.939362,68.444138 275.046692,21.434380 
	C281.729156,22.158739 288.290466,24.005144 294.936584,24.390848 
	C306.923767,25.086521 318.961517,25.019142 330.978485,25.037060 
	C335.414459,25.043674 339.851410,24.391369 344.735474,24.105022 
z"/>
<path fill="#FEFEFE" opacity="1.000000" stroke="none" 
	d="
M118.379494,402.472351 
	C115.709702,410.732544 113.138481,418.627319 110.704620,426.564209 
	C108.845161,432.627991 104.672523,435.341309 99.117798,433.878967 
	C94.596924,432.688721 92.418625,427.886597 93.739830,422.175781 
	C100.531303,392.820190 114.222435,367.167999 135.032028,345.360321 
	C138.810272,341.400848 142.722092,337.557983 146.732941,333.834351 
	C150.949829,329.919464 156.069321,329.933105 159.624207,333.610016 
	C163.182312,337.290314 163.145554,342.574707 158.925720,346.459503 
	C147.617874,356.869568 137.209442,368.030701 129.433701,381.362030 
	C125.499580,388.106934 122.150658,395.193146 118.379494,402.472351 
z"/>
<path fill="#FDFEFE" opacity="1.000000" stroke="none" 
	d="
M185.753571,315.746307 
	C186.347717,323.792542 182.004532,328.863251 176.063934,327.464233 
	C171.682098,326.432251 169.238388,323.635986 168.938385,319.033081 
	C168.642441,314.492798 171.084518,311.784332 174.975204,310.317627 
	C179.080826,308.769867 182.747238,310.648529 185.753571,315.746307 
z"/>
</svg>