<svg version="1.1" id="Layer_1" xmlns="http://www.w3.org/2000/svg" xmlns:xlink="http://www.w3.org/1999/xlink" x="0px" y="0px"
	 width="100%" viewBox="0 0 600 600" enable-background="new 0 0 600 600" xml:space="preserve">
<path fill="#4C6971" opacity="0" stroke="none" 
	d="
M1.000000,218.000000 
	C1.000000,145.333359 1.000000,73.166710 1.000000,1.000032 
	C100.999947,1.000000 200.999893,1.000000 300.999847,1.000000 
	C400.999817,1.000000 500.999786,1.000000 600.999817,1.000000 
	C600.999878,200.999863 600.999878,400.999725 600.999939,600.999634 
	C401.000214,600.999756 201.000397,600.999756 1.000301,600.999878 
	C1.000000,473.500000 1.000000,346.000000 1.000000,218.000000 
M563.938904,282.256470 
	C563.631470,278.795166 563.246155,275.338745 563.029663,271.871765 
	C561.896362,253.725403 557.716248,236.134613 552.240479,218.942474 
	C546.235779,200.089478 538.075256,182.054321 527.690735,165.144089 
	C515.223877,144.842972 500.425262,126.473259 482.910156,110.194504 
	C463.771027,92.406372 442.573120,77.828827 419.056213,66.540115 
	C401.195038,57.966309 382.650085,51.198586 363.240051,47.324455 
	C350.939636,44.869358 338.356140,43.832645 324.980377,42.078800 
	C313.688568,42.105923 302.396790,42.133049 290.231567,42.071785 
	C284.610168,42.509487 278.885590,42.418785 273.388336,43.492241 
	C261.029785,45.905521 248.705627,48.590683 236.509262,51.718121 
	C213.975052,57.496422 193.175507,67.413727 173.334641,79.395874 
	C152.247314,92.130775 133.792480,108.120392 117.324333,126.310860 
	C101.995941,143.242371 89.050743,161.929016 78.957405,182.497757 
	C70.892670,198.932449 63.725651,215.751328 60.032269,233.744263 
	C56.937992,248.818573 53.226109,263.978973 52.371349,279.245911 
	C51.317059,298.076721 51.482601,316.999481 54.575500,335.948914 
	C57.970177,356.747284 63.370926,376.811646 71.235947,396.180389 
	C80.217583,418.298950 92.631973,438.488831 107.474663,457.281952 
	C133.087585,489.711853 164.790497,514.290710 202.195465,531.437378 
	C232.228348,545.204590 263.971771,552.592102 296.996002,553.945679 
	C317.132111,554.770996 337.247711,553.562134 357.015320,549.653381 
	C378.065155,545.491028 398.453491,538.946655 417.845032,529.580383 
	C449.827606,514.132507 477.744110,493.360901 501.125580,466.502899 
	C517.469482,447.729004 530.859558,427.128021 541.317505,404.551117 
	C550.655457,384.392059 557.008850,363.305267 560.772156,341.485657 
	C562.456787,331.718903 562.855774,321.730377 563.935242,311.006927 
	C563.903137,301.726929 563.871094,292.446960 563.938904,282.256470 
z"/>
<path fill="#6FB553" opacity="0" stroke="none" 
	d="
M325.899597,42.159813 
	C338.356140,43.832645 350.939636,44.869358 363.240051,47.324455 
	C382.650085,51.198586 401.195038,57.966309 419.056213,66.540115 
	C442.573120,77.828827 463.771027,92.406372 482.910156,110.194504 
	C500.425262,126.473259 515.223877,144.842972 527.690735,165.144089 
	C538.075256,182.054321 546.235779,200.089478 552.240479,218.942474 
	C557.716248,236.134613 561.896362,253.725403 563.029663,271.871765 
	C563.246155,275.338745 563.631470,278.795166 563.748840,283.083374 
	C563.651917,293.221008 563.745056,302.531738 563.838135,311.842499 
	C562.855774,321.730377 562.456787,331.718903 560.772156,341.485657 
	C557.008850,363.305267 550.655457,384.392059 541.317505,404.551117 
	C530.859558,427.128021 517.469482,447.729004 501.125580,466.502899 
	C477.744110,493.360901 449.827606,514.132507 417.845032,529.580383 
	C398.453491,538.946655 378.065155,545.491028 357.015320,549.653381 
	C337.247711,553.562134 317.132111,554.770996 296.996002,553.945679 
	C263.971771,552.592102 232.228348,545.204590 202.195465,531.437378 
	C164.790497,514.290710 133.087585,489.711853 107.474663,457.281952 
	C92.631973,438.488831 80.217583,418.298950 71.235947,396.180389 
	C63.370926,376.811646 57.970177,356.747284 54.575500,335.948914 
	C51.482601,316.999481 51.317059,298.076721 52.371349,279.245911 
	C53.226109,263.978973 56.937992,248.818573 60.032269,233.744263 
	C63.725651,215.751328 70.892670,198.932449 78.957405,182.497757 
	C89.050743,161.929016 101.995941,143.242371 117.324333,126.310860 
	C133.792480,108.120392 152.247314,92.130775 173.334641,79.395874 
	C193.175507,67.413727 213.975052,57.496422 236.509262,51.718121 
	C248.705627,48.590683 261.029785,45.905521 273.388336,43.492241 
	C278.885590,42.418785 284.610168,42.509487 291.047668,42.250172 
	C303.209015,42.338978 314.554321,42.249393 325.899597,42.159813 
M79.728218,285.503021 
	C79.844566,293.977234 79.960915,302.451416 80.539436,311.609039 
	C81.099548,318.054718 81.200073,324.580322 82.304451,330.931335 
	C85.863739,351.399963 91.406364,371.267181 99.846024,390.376740 
	C115.372223,425.532043 138.873856,454.299225 168.747925,478.054321 
	C185.587433,491.444733 204.174454,501.872040 224.251663,509.710083 
	C242.432312,516.807739 261.077087,521.890198 280.513184,523.908447 
	C290.735077,524.969849 300.996185,527.003235 311.183228,526.700623 
	C323.226654,526.342834 335.271118,524.310425 347.203156,522.329346 
	C363.597992,519.607300 379.504974,514.956177 394.881348,508.556610 
	C418.235901,498.836578 439.572876,485.841309 458.431152,468.972198 
	C479.235962,450.361786 497.219482,429.369995 509.420624,404.065002 
	C515.592896,391.263885 521.278564,378.124756 525.862732,364.687622 
	C531.550964,348.014404 535.054626,330.719849 535.085205,312.943787 
	C535.109436,298.843750 536.437805,284.530334 534.471375,270.697754 
	C532.081726,253.888275 528.012146,237.089264 522.581543,220.989960 
	C512.537476,191.213715 496.175781,164.869080 474.466003,142.025711 
	C455.196808,121.750320 433.261597,105.179611 407.995728,92.800362 
	C381.824036,79.977318 354.202179,72.519829 325.436768,70.352028 
	C309.322357,69.137627 292.902344,70.823868 276.703278,72.190231 
	C257.922913,73.774323 239.920547,79.234322 222.536621,86.338821 
	C198.533997,96.148277 176.727158,109.634850 157.271500,126.883690 
	C139.998627,142.197342 124.695000,159.282150 113.397835,179.387436 
	C105.458710,193.516541 98.397530,208.309174 92.653946,223.453888 
	C86.910500,238.598206 82.936234,254.457657 81.915115,270.849976 
	C81.618721,275.608246 80.712463,280.328522 79.728218,285.503021 
z"/>
<path fill="#5AAA39" opacity="1.000000" stroke="none" 
	d="
M563.886719,311.424713 
	C563.745056,302.531738 563.651917,293.221008 563.698853,283.538605 
	C563.871094,292.446960 563.903137,301.726929 563.886719,311.424713 
z"/>
<path fill="#5FAD40" opacity="1.000000" stroke="none" 
	d="
M325.440002,42.119308 
	C314.554321,42.249393 303.209015,42.338978 291.484375,42.294365 
	C302.396790,42.133049 313.688568,42.105923 325.440002,42.119308 
z"/>
<path fill="#4C6971" opacity="1.000000" stroke="none" 
	d="
M80.085777,285.066193 
	C80.712463,280.328522 81.618721,275.608246 81.915115,270.849976 
	C82.936234,254.457657 86.910500,238.598206 92.653946,223.453888 
	C98.397530,208.309174 105.458710,193.516541 113.397835,179.387436 
	C124.695000,159.282150 139.998627,142.197342 157.271500,126.883690 
	C176.727158,109.634850 198.533997,96.148277 222.536621,86.338821 
	C239.920547,79.234322 257.922913,73.774323 276.703278,72.190231 
	C292.902344,70.823868 309.322357,69.137627 325.436768,70.352028 
	C354.202179,72.519829 381.824036,79.977318 407.995728,92.800362 
	C433.261597,105.179611 455.196808,121.750320 474.466003,142.025711 
	C496.175781,164.869080 512.537476,191.213715 522.581543,220.989960 
	C528.012146,237.089264 532.081726,253.888275 534.471375,270.697754 
	C536.437805,284.530334 535.109436,298.843750 535.085205,312.943787 
	C535.054626,330.719849 531.550964,348.014404 525.862732,364.687622 
	C521.278564,378.124756 515.592896,391.263885 509.420624,404.065002 
	C497.219482,429.369995 479.235962,450.361786 458.431152,468.972198 
	C439.572876,485.841309 418.235901,498.836578 394.881348,508.556610 
	C379.504974,514.956177 363.597992,519.607300 347.203156,522.329346 
	C335.271118,524.310425 323.226654,526.342834 311.183228,526.700623 
	C300.996185,527.003235 290.735077,524.969849 280.513184,523.908447 
	C261.077087,521.890198 242.432312,516.807739 224.251663,509.710083 
	C204.174454,501.872040 185.587433,491.444733 168.747925,478.054321 
	C138.873856,454.299225 115.372223,425.532043 99.846024,390.376740 
	C91.406364,371.267181 85.863739,351.399963 82.304451,330.931335 
	C81.200073,324.580322 81.099548,318.054718 80.288521,310.803833 
	C80.053665,301.687805 80.069717,293.376984 80.085777,285.066193 
M325.772278,517.926514 
	C342.709778,516.670227 359.178772,513.343384 375.426300,508.230621 
	C402.940125,499.572632 427.718048,485.967682 449.700256,467.575317 
	C479.299011,442.810303 500.927002,412.247711 514.759949,376.012726 
	C522.415405,355.959473 527.061096,335.291748 528.736816,314.138062 
	C530.930725,286.443115 527.736145,258.997589 519.493713,232.410416 
	C510.240479,202.562836 495.283844,175.679062 474.516693,152.281830 
	C456.043610,131.469238 434.753143,114.088837 409.812714,101.361214 
	C389.101624,90.791901 367.259460,83.606529 344.459900,79.476898 
	C336.015991,77.947472 327.324127,77.574493 318.722504,77.202660 
	C312.997681,76.955193 307.229980,77.599602 301.485840,77.922913 
	C291.450104,78.487770 281.210205,78.053375 271.434113,79.968536 
	C257.820435,82.635490 244.361740,86.499229 231.181030,90.885391 
	C204.349792,99.814056 180.799591,114.593025 159.980392,133.601227 
	C144.576630,147.665070 131.135391,163.468155 120.137978,181.278748 
	C108.542358,200.058182 99.643295,220.070969 94.263718,241.424408 
	C88.401932,264.691956 86.124611,288.296265 87.703720,312.476532 
	C88.895592,330.727417 92.170517,348.409180 97.609482,365.622162 
	C105.104546,389.342194 116.479965,411.262329 131.686279,431.099762 
	C146.042206,449.827820 162.701080,466.154388 182.186905,479.474396 
	C203.871979,494.297791 227.137161,505.877319 252.967606,511.425659 
	C265.555542,514.129517 278.379089,515.736511 291.964355,517.922058 
	C302.943268,517.894348 313.922211,517.866577 325.772278,517.926514 
z"/>
<path fill="#5AAA39" opacity="1.000000" stroke="none" 
	d="
M79.906998,285.284607 
	C80.069717,293.376984 80.053665,301.687805 80.057434,310.462097 
	C79.960915,302.451416 79.844566,293.977234 79.906998,285.284607 
z"/>
<path fill="#6EB552" opacity="1.000000" stroke="none" 
	d="
M291.096008,517.840027 
	C278.379089,515.736511 265.555542,514.129517 252.967606,511.425659 
	C227.137161,505.877319 203.871979,494.297791 182.186905,479.474396 
	C162.701080,466.154388 146.042206,449.827820 131.686279,431.099762 
	C116.479965,411.262329 105.104546,389.342194 97.609482,365.622162 
	C92.170517,348.409180 88.895592,330.727417 87.703720,312.476532 
	C86.124611,288.296265 88.401932,264.691956 94.263718,241.424408 
	C99.643295,220.070969 108.542358,200.058182 120.137978,181.278748 
	C131.135391,163.468155 144.576630,147.665070 159.980392,133.601227 
	C180.799591,114.593025 204.349792,99.814056 231.181030,90.885391 
	C244.361740,86.499229 257.820435,82.635490 271.434113,79.968536 
	C281.210205,78.053375 291.450104,78.487770 301.485840,77.922913 
	C307.229980,77.599602 312.997681,76.955193 318.722504,77.202660 
	C327.324127,77.574493 336.015991,77.947472 344.459900,79.476898 
	C367.259460,83.606529 389.101624,90.791901 409.812714,101.361214 
	C434.753143,114.088837 456.043610,131.469238 474.516693,152.281830 
	C495.283844,175.679062 510.240479,202.562836 519.493713,232.410416 
	C527.736145,258.997589 530.930725,286.443115 528.736816,314.138062 
	C527.061096,335.291748 522.415405,355.959473 514.759949,376.012726 
	C500.927002,412.247711 479.299011,442.810303 449.700256,467.575317 
	C427.718048,485.967682 402.940125,499.572632 375.426300,508.230621 
	C359.178772,513.343384 342.709778,516.670227 324.955902,517.751099 
	C313.125031,517.663818 302.110504,517.751953 291.096008,517.840027 
M319.514496,85.737129 
	C312.023529,85.860443 304.532562,85.983757 296.349457,86.553810 
	C284.364075,88.173470 272.155548,88.842911 260.436249,91.595436 
	C228.489716,99.098732 199.734940,113.304108 174.110413,134.085464 
	C154.597885,149.910004 138.764053,168.739731 126.033791,190.142654 
	C112.771919,212.439362 103.907883,236.439789 99.603951,262.203033 
	C96.227707,282.413208 96.050926,302.602448 98.097214,322.811066 
	C100.234039,343.913635 105.710815,364.361542 114.915443,383.448944 
	C121.227020,396.537140 128.623825,409.240479 136.782516,421.270111 
	C152.867599,444.986969 173.968307,463.741486 198.363129,478.597534 
	C220.210434,491.902191 243.734436,501.180603 269.073639,505.522797 
	C283.915497,508.066101 298.757263,510.718628 313.901581,509.943329 
	C318.632385,509.701141 323.304230,508.328186 328.035522,508.071442 
	C347.816345,506.998047 366.687378,501.864288 385.000519,494.836334 
	C407.824341,486.077332 428.399261,473.396454 446.763184,457.164520 
	C462.553375,443.207550 476.522095,427.696899 487.623230,409.737610 
	C503.186707,384.559204 512.713013,357.288025 517.422668,328.001434 
	C521.066833,305.340302 520.258606,282.940063 516.502075,260.613220 
	C513.358521,241.929398 507.390045,223.982010 499.109039,206.829834 
	C489.793518,187.534912 478.067993,169.853714 463.521912,154.201355 
	C443.744720,132.919968 420.628632,116.095818 393.895081,104.447891 
	C374.308655,95.914009 354.122864,89.620392 332.679596,87.906609 
	C328.416779,87.565918 324.194641,86.716652 319.514496,85.737129 
z"/>
<path fill="#61AE42" opacity="1.000000" stroke="none" 
	d="
M291.530182,517.881042 
	C302.110504,517.751953 313.125031,517.663818 324.520325,517.707275 
	C313.922211,517.866577 302.943268,517.894348 291.530182,517.881042 
z"/>
<path fill="#4C6971" opacity="1.000000" stroke="none" 
	d="
M319.953735,86.101898 
	C324.194641,86.716652 328.416779,87.565918 332.679596,87.906609 
	C354.122864,89.620392 374.308655,95.914009 393.895081,104.447891 
	C420.628632,116.095818 443.744720,132.919968 463.521912,154.201355 
	C478.067993,169.853714 489.793518,187.534912 499.109039,206.829834 
	C507.390045,223.982010 513.358521,241.929398 516.502075,260.613220 
	C520.258606,282.940063 521.066833,305.340302 517.422668,328.001434 
	C512.713013,357.288025 503.186707,384.559204 487.623230,409.737610 
	C476.522095,427.696899 462.553375,443.207550 446.763184,457.164520 
	C428.399261,473.396454 407.824341,486.077332 385.000519,494.836334 
	C366.687378,501.864288 347.816345,506.998047 328.035522,508.071442 
	C323.304230,508.328186 318.632385,509.701141 313.901581,509.943329 
	C298.757263,510.718628 283.915497,508.066101 269.073639,505.522797 
	C243.734436,501.180603 220.210434,491.902191 198.363129,478.597534 
	C173.968307,463.741486 152.867599,444.986969 136.782516,421.270111 
	C128.623825,409.240479 121.227020,396.537140 114.915443,383.448944 
	C105.710815,364.361542 100.234039,343.913635 98.097214,322.811066 
	C96.050926,302.602448 96.227707,282.413208 99.603951,262.203033 
	C103.907883,236.439789 112.771919,212.439362 126.033791,190.142654 
	C138.764053,168.739731 154.597885,149.910004 174.110413,134.085464 
	C199.734940,113.304108 228.489716,99.098732 260.436249,91.595436 
	C272.155548,88.842911 284.364075,88.173470 297.162140,86.303055 
	C305.301117,86.068832 312.627441,86.085365 319.953735,86.101898 
M256.544830,449.188416 
	C256.696625,440.750610 256.943970,432.312805 256.947784,423.874939 
	C256.949097,420.969818 256.342957,418.064453 255.213287,415.089752 
	C247.507614,415.530914 242.562607,419.989258 244.291931,425.306732 
	C246.880035,423.893982 249.420746,422.507080 251.980042,422.038330 
	C251.995270,429.750458 252.027908,437.462585 252.016418,445.174683 
	C252.012299,447.939301 252.510208,450.178253 256.544830,449.188416 
M216.366531,434.311707 
	C215.740280,433.574951 215.126266,432.209503 214.485931,432.197021 
	C206.586609,432.043182 198.682205,432.029846 190.783798,432.198364 
	C190.213318,432.210541 189.679001,433.918243 190.043625,434.917816 
	C198.691254,434.891479 207.338898,434.865143 216.366531,434.311707 
M394.886017,390.919067 
	C403.984406,391.124359 403.988098,391.124359 403.997314,382.095367 
	C404.010223,369.443329 404.017059,356.791290 404.560120,344.522308 
	C408.993835,350.893433 413.371460,357.304535 417.874817,363.626038 
	C424.185638,372.484680 430.590149,381.276611 437.641937,390.536072 
	C440.780304,390.634216 443.918671,390.732361 447.526459,390.173523 
	C447.673676,389.193695 447.947784,388.214050 447.949341,387.233978 
	C447.979736,367.972961 447.998138,348.711823 447.943481,329.450958 
	C447.939423,328.022827 447.363617,326.596375 446.144562,325.082550 
	C443.112274,325.108337 440.079956,325.134125 436.535370,325.796265 
	C436.353882,327.599762 436.023438,329.402588 436.015259,331.206879 
	C435.964966,342.324677 436.004608,353.442871 435.966614,364.560791 
	C435.961029,366.194916 435.701813,367.828186 435.439301,370.850555 
	C426.073151,357.471741 417.321869,345.642365 409.356750,333.305450 
	C405.478027,327.297852 401.595184,323.318756 393.508514,326.193085 
	C393.342133,327.163574 393.032013,328.133850 393.030609,329.104584 
	C393.003113,348.260986 392.990692,367.417480 393.054443,386.573700 
	C393.059143,387.995087 393.663330,389.414459 394.886017,390.919067 
M214.438705,327.696869 
	C214.309021,328.510193 214.067368,329.323334 214.066086,330.136871 
	C214.037582,348.159760 214.018539,366.182739 214.065140,384.205536 
	C214.068420,385.474121 214.593384,386.741302 215.097153,388.762299 
	C216.929443,389.504913 218.748459,390.848816 220.596237,390.889618 
	C230.404343,391.106232 240.219757,391.020477 250.032471,390.990356 
	C257.217712,390.968292 258.195953,389.503723 255.124359,382.087463 
	C247.533859,382.056458 239.937149,381.828430 232.355194,382.067810 
	C227.759048,382.212891 225.632187,380.784363 225.972046,375.904144 
	C226.292343,371.304565 226.084427,366.668243 227.029953,362.024170 
	C236.306320,361.962494 245.582672,361.900818 255.390778,361.281158 
	C255.277130,358.515991 255.163483,355.750824 255.008728,353.019440 
	C255.008728,353.019440 255.065521,353.011108 254.383896,352.511871 
	C248.907013,352.338928 243.431229,352.104370 237.953003,352.005310 
	C224.707611,351.765747 226.188095,353.818970 225.993454,339.922546 
	C225.939407,336.063507 227.221497,334.822052 231.245026,334.841187 
	C239.517639,334.880524 247.793610,334.206482 256.510956,333.199036 
	C257.573486,325.606964 257.124756,325.026917 249.847000,325.007721 
	C240.094681,324.981995 230.340118,324.899811 220.591660,325.096619 
	C218.673431,325.135345 216.778549,326.331268 214.438705,327.696869 
M296.585480,356.769348 
	C295.219147,365.398132 295.713776,365.995392 304.240845,366.028564 
	C305.739990,366.034393 307.239502,366.080109 308.738098,366.057678 
	C312.559021,366.000519 313.262695,367.739807 312.061646,371.150238 
	C307.666870,383.629211 291.283447,384.925446 283.849060,378.302338 
	C275.660767,371.007599 275.379761,361.429291 276.383942,351.651215 
	C277.252289,343.195679 281.447693,336.451538 289.952484,334.469604 
	C298.899811,332.384521 306.446045,334.921600 311.451569,343.818024 
	C312.445221,345.584106 317.945251,346.105255 320.753754,345.230682 
	C324.207703,344.155029 322.160370,340.732178 321.078979,338.438446 
	C313.492645,322.347137 292.521332,321.095093 280.825378,326.860474 
	C262.886078,335.703430 261.917694,356.052155 266.332550,371.138916 
	C271.730865,389.586426 284.789917,393.469147 301.781616,391.735413 
	C310.201965,390.876282 316.866333,386.635895 320.633331,378.824097 
	C322.122803,375.735199 322.804535,372.256866 323.932343,368.037018 
	C323.953033,366.062836 323.808167,364.070099 324.027191,362.118195 
	C324.564453,357.329590 322.474792,355.721466 317.796875,355.942657 
	C310.900696,356.268707 303.981293,356.103302 296.585480,356.769348 
M343.273651,188.257431 
	C343.273651,188.257431 343.623688,188.590515 343.217072,189.118698 
	C342.282501,190.066589 341.383575,191.052994 340.407715,191.956268 
	C332.242767,199.514038 323.920776,206.911560 316.000610,214.717087 
	C314.264221,216.428345 313.284973,219.532806 313.118500,222.071808 
	C312.838959,226.335312 314.263763,230.786591 313.583984,234.931305 
	C312.335358,242.544373 309.960999,249.967209 308.357788,257.533295 
	C308.094696,258.774780 309.135010,261.405060 309.977203,261.594299 
	C317.526276,263.290558 325.179626,265.821716 332.775970,265.737396 
	C348.467896,265.563080 362.098083,259.219482 373.099335,247.907715 
	C385.422577,235.236618 389.889893,218.772461 393.847687,202.319611 
	C397.097717,188.809113 399.192383,175.024094 401.999573,161.402054 
	C403.214478,155.506683 404.933472,149.715179 406.623383,143.093201 
	C402.413116,143.093201 399.127747,142.985245 395.852203,143.118393 
	C390.882660,143.320389 385.920013,143.918060 380.954376,143.919037 
	C376.656677,143.919876 372.296448,142.691681 368.072540,143.108322 
	C354.227539,144.473984 340.297241,145.694443 327.230194,151.097305 
	C313.285583,156.863037 301.605377,165.546921 292.479156,177.693558 
	C289.777283,181.289673 290.698517,183.588608 293.286530,186.695694 
	C297.935883,192.277542 302.154633,198.232132 306.328888,204.188263 
	C307.850891,206.360001 308.733063,208.980225 310.131744,211.857849 
	C313.701752,208.894806 316.367310,206.388992 319.320831,204.287964 
	C327.125397,198.736038 335.054810,193.359543 343.273651,188.257431 
M216.999847,162.072144 
	C208.697479,162.098694 200.395096,162.125244 191.333527,162.116058 
	C189.293549,162.576721 187.253571,163.037384 184.935791,163.560776 
	C186.678146,169.165359 188.666000,174.115723 189.731903,179.257233 
	C193.026550,195.149170 195.270538,211.290710 199.241669,227.001907 
	C203.404434,243.471176 209.109207,259.422363 223.713562,270.354858 
	C243.884048,285.454041 267.247589,287.729523 289.625610,273.592224 
	C294.893829,270.264038 295.200531,270.287323 298.210907,276.141724 
	C300.136902,279.887268 302.096283,283.615601 304.026245,287.323914 
	C311.177307,283.843414 311.514618,282.990540 307.683929,277.087769 
	C302.897797,269.712677 298.601898,261.881104 292.916534,255.257599 
	C282.029816,242.574402 270.358002,230.561386 258.908691,218.367249 
	C255.642029,214.888092 252.019577,211.742966 248.560272,208.444672 
	C248.898392,208.108765 249.236511,207.772873 249.574631,207.436966 
	C271.563538,219.700684 288.130249,237.844788 302.777924,258.611267 
	C307.752228,251.879013 309.307190,244.939835 309.939453,237.838348 
	C311.440155,220.982452 305.442047,206.385956 294.950287,193.710938 
	C285.271027,182.017487 273.353394,173.300156 258.565216,168.552017 
	C245.283356,164.287506 231.670776,163.006470 216.999847,162.072144 
M352.785095,326.029144 
	C351.613159,327.271912 349.983887,328.320435 349.357605,329.794983 
	C347.678528,333.748077 346.465790,337.896942 345.002106,341.944244 
	C339.699677,356.606171 334.300415,371.234009 329.173492,385.956818 
	C328.725189,387.244202 329.542297,390.088470 330.553894,390.571594 
	C334.589142,392.498657 338.778534,390.468140 340.423096,386.320923 
	C341.279663,384.160889 342.410217,382.028412 342.792053,379.777466 
	C343.683197,374.523773 346.522156,372.303833 351.783539,372.978699 
	C353.094238,373.146790 354.446106,372.966949 355.777283,373.006622 
	C371.698181,373.481171 367.757538,370.068848 373.136841,385.807892 
	C374.739227,390.496185 378.707214,392.808807 383.308044,390.715698 
	C387.463287,388.825378 385.068542,385.181183 384.133606,382.540863 
	C378.541504,366.749146 372.611450,351.077271 366.995911,335.293671 
	C363.507416,325.488617 363.666779,325.431915 352.785095,326.029144 
M189.515656,346.919281 
	C186.233887,356.500580 182.952118,366.081879 179.670349,375.663177 
	C173.478485,360.439606 168.279190,345.445190 163.374695,330.355011 
	C162.271072,326.959351 160.283936,325.949707 157.137070,326.013153 
	C155.166580,326.052917 153.194641,326.020538 150.660706,326.020538 
	C151.056473,328.068817 151.159485,329.703430 151.690750,331.184387 
	C158.351288,349.750824 165.307983,368.215851 171.624435,386.897675 
	C173.315720,391.899902 176.596878,390.723663 179.866043,390.991455 
	C183.406998,391.281494 185.736526,390.214844 186.996521,386.423828 
	C190.285400,376.528442 193.959488,366.760895 197.492615,356.946930 
	C200.580383,348.370056 203.740082,339.818481 206.740494,331.211273 
	C207.407120,329.298920 208.526581,326.988953 205.063599,326.132538 
	C199.202347,324.683075 196.337814,325.917450 194.386169,331.460144 
	C192.681305,336.302002 191.307007,341.260284 189.515656,346.919281 
M315.314026,417.126007 
	C308.072327,411.156433 295.846558,414.058533 294.854828,425.298401 
	C294.397064,430.486786 294.402344,435.842316 295.167419,440.977570 
	C295.965790,446.336395 299.843842,449.801941 305.179962,450.713074 
	C310.460846,451.614807 314.798767,449.195831 317.130920,444.516357 
	C321.646576,435.455719 321.259918,426.399200 315.314026,417.126007 
M289.389709,427.171051 
	C288.889008,419.449249 286.044159,415.752991 279.511383,414.336426 
	C274.007751,413.143005 268.781952,415.484924 266.185944,421.515594 
	C263.065735,428.764038 262.878815,436.464325 266.521912,443.663300 
	C269.572937,449.692322 275.108765,451.993286 280.483246,450.236969 
	C286.514801,448.265961 289.572418,443.253784 289.156006,436.363617 
	C288.986542,433.559967 289.178589,430.734497 289.389709,427.171051 
M347.572815,427.082062 
	C349.817993,423.503998 352.063141,419.925903 354.308319,416.347839 
	C354.037323,415.984253 353.766357,415.620667 353.495361,415.257080 
	C352.344543,415.460846 350.594696,415.254456 350.132446,415.929657 
	C342.727081,426.745056 335.485992,437.673004 327.895142,449.043213 
	C332.805328,449.624847 332.805328,449.624847 347.572815,427.082062 
M325.231079,416.821198 
	C324.545685,418.678131 323.478088,420.489868 323.252167,422.401093 
	C322.737244,426.757721 324.551727,430.668030 328.463074,432.200348 
	C330.433807,432.972412 333.964478,431.679413 335.900574,430.175507 
	C338.828735,427.900970 338.859406,420.082092 336.364716,417.190582 
	C333.231598,413.559021 329.496368,413.895630 325.231079,416.821198 
M356.719208,433.686890 
	C353.022461,431.695007 349.334229,431.214966 346.445129,434.840729 
	C344.169922,437.696167 344.641022,445.505951 346.839478,448.119202 
	C349.644745,451.453644 354.982025,451.197205 357.600250,447.587341 
	C360.888000,443.054321 360.243622,438.602539 356.719208,433.686890 
M404.404114,434.955597 
	C407.236237,434.791443 410.068390,434.627319 412.900513,434.463165 
	C412.848328,433.886993 412.796173,433.310822 412.743988,432.734650 
	C403.899811,432.734650 395.055664,432.734650 386.211487,432.734650 
	C386.187073,433.474976 386.162628,434.215271 386.138214,434.955597 
	C391.903381,434.955597 397.668549,434.955597 404.404114,434.955597 
z"/>
<path fill="#5FAD40" opacity="1.000000" stroke="none" 
	d="
M319.734131,85.919518 
	C312.627441,86.085365 305.301117,86.068832 297.508209,86.079689 
	C304.532562,85.983757 312.023529,85.860443 319.734131,85.919518 
z"/>
<path fill="#6FB553" opacity="1.000000" stroke="none" 
	d="
M217.924759,162.152298 
	C231.670776,163.006470 245.283356,164.287506 258.565216,168.552017 
	C273.353394,173.300156 285.271027,182.017487 294.950287,193.710938 
	C305.442047,206.385956 311.440155,220.982452 309.939453,237.838348 
	C309.307190,244.939835 307.752228,251.879013 302.777924,258.611267 
	C288.130249,237.844788 271.563538,219.700684 249.574631,207.436966 
	C249.236511,207.772873 248.898392,208.108765 248.560272,208.444672 
	C252.019577,211.742966 255.642029,214.888092 258.908691,218.367249 
	C270.358002,230.561386 282.029816,242.574402 292.916534,255.257599 
	C298.601898,261.881104 302.897797,269.712677 307.683929,277.087769 
	C311.514618,282.990540 311.177307,283.843414 304.026245,287.323914 
	C302.096283,283.615601 300.136902,279.887268 298.210907,276.141724 
	C295.200531,270.287323 294.893829,270.264038 289.625610,273.592224 
	C267.247589,287.729523 243.884048,285.454041 223.713562,270.354858 
	C209.109207,259.422363 203.404434,243.471176 199.241669,227.001907 
	C195.270538,211.290710 193.026550,195.149170 189.731903,179.257233 
	C188.666000,174.115723 186.678146,169.165359 184.935791,163.560776 
	C187.253571,163.037384 189.293549,162.576721 192.099548,162.252075 
	C201.218643,162.309479 209.571701,162.230881 217.924759,162.152298 
M246.158264,205.728027 
	C246.088638,205.726273 246.019012,205.724518 246.158264,205.728027 
z"/>
<path fill="#6FB553" opacity="1.000000" stroke="none" 
	d="
M342.934509,187.913208 
	C335.054810,193.359543 327.125397,198.736038 319.320831,204.287964 
	C316.367310,206.388992 313.701752,208.894806 310.131744,211.857849 
	C308.733063,208.980225 307.850891,206.360001 306.328888,204.188263 
	C302.154633,198.232132 297.935883,192.277542 293.286530,186.695694 
	C290.698517,183.588608 289.777283,181.289673 292.479156,177.693558 
	C301.605377,165.546921 313.285583,156.863037 327.230194,151.097305 
	C340.297241,145.694443 354.227539,144.473984 368.072540,143.108322 
	C372.296448,142.691681 376.656677,143.919876 380.954376,143.919037 
	C385.920013,143.918060 390.882660,143.320389 395.852203,143.118393 
	C399.127747,142.985245 402.413116,143.093201 406.623383,143.093201 
	C404.933472,149.715179 403.214478,155.506683 401.999573,161.402054 
	C399.192383,175.024094 397.097717,188.809113 393.847687,202.319611 
	C389.889893,218.772461 385.422577,235.236618 373.099335,247.907715 
	C362.098083,259.219482 348.467896,265.563080 332.775970,265.737396 
	C325.179626,265.821716 317.526276,263.290558 309.977203,261.594299 
	C309.135010,261.405060 308.094696,258.774780 308.357788,257.533295 
	C309.960999,249.967209 312.335358,242.544373 313.583984,234.931305 
	C314.263763,230.786591 312.838959,226.335312 313.118500,222.071808 
	C313.284973,219.532806 314.264221,216.428345 316.000610,214.717087 
	C323.920776,206.911560 332.242767,199.514038 340.407715,191.956268 
	C341.383575,191.052994 342.282501,190.066589 343.544098,188.759216 
	C343.934784,188.046600 343.998474,187.693436 344.062134,187.340271 
	C343.686249,187.531235 343.310364,187.722214 342.934509,187.913208 
M346.854370,185.705887 
	C346.913391,185.598618 346.972412,185.491364 347.031403,185.384094 
	C346.941193,185.430557 346.850952,185.477020 346.854370,185.705887 
z"/>
<path fill="#6EB452" opacity="1.000000" stroke="none" 
	d="
M323.854065,368.955841 
	C322.804535,372.256866 322.122803,375.735199 320.633331,378.824097 
	C316.866333,386.635895 310.201965,390.876282 301.781616,391.735413 
	C284.789917,393.469147 271.730865,389.586426 266.332550,371.138916 
	C261.917694,356.052155 262.886078,335.703430 280.825378,326.860474 
	C292.521332,321.095093 313.492645,322.347137 321.078979,338.438446 
	C322.160370,340.732178 324.207703,344.155029 320.753754,345.230682 
	C317.945251,346.105255 312.445221,345.584106 311.451569,343.818024 
	C306.446045,334.921600 298.899811,332.384521 289.952484,334.469604 
	C281.447693,336.451538 277.252289,343.195679 276.383942,351.651215 
	C275.379761,361.429291 275.660767,371.007599 283.849060,378.302338 
	C291.283447,384.925446 307.666870,383.629211 312.061646,371.150238 
	C313.262695,367.739807 312.559021,366.000519 308.738098,366.057678 
	C307.239502,366.080109 305.739990,366.034393 304.240845,366.028564 
	C295.713776,365.995392 295.219147,365.398132 297.218201,356.570648 
	C302.300140,356.558472 306.748413,356.871521 311.198792,356.906158 
	C321.723785,356.988159 321.720154,356.935272 323.334106,367.043823 
	C323.437653,367.692322 323.677582,368.319000 323.854065,368.955841 
z"/>
<path fill="#6FB553" opacity="1.000000" stroke="none" 
	d="
M394.024841,325.880859 
	C401.595184,323.318756 405.478027,327.297852 409.356750,333.305450 
	C417.321869,345.642365 426.073151,357.471741 435.439301,370.850555 
	C435.701813,367.828186 435.961029,366.194916 435.966614,364.560791 
	C436.004608,353.442871 435.964966,342.324677 436.015259,331.206879 
	C436.023438,329.402588 436.353882,327.599762 437.152679,325.617920 
	C445.987122,326.984772 445.999329,326.984772 446.004974,335.685760 
	C446.014709,350.643860 446.017151,365.601929 446.003815,380.560028 
	C445.995697,389.690216 445.913147,389.760529 436.954559,390.097076 
	C430.590149,381.276611 424.185638,372.484680 417.874817,363.626038 
	C413.371460,357.304535 408.993835,350.893433 404.121948,344.542664 
	C403.459473,346.355194 403.052002,348.146240 403.040985,349.939758 
	C402.977631,360.254456 403.021332,370.569763 403.002808,380.884796 
	C402.987213,389.582245 402.889832,389.666809 394.085999,389.625916 
	C394.056580,368.061005 394.040710,346.970947 394.024841,325.880859 
z"/>
<path fill="#6EB552" opacity="1.000000" stroke="none" 
	d="
M353.146515,326.011627 
	C363.666779,325.431915 363.507416,325.488617 366.995911,335.293671 
	C372.611450,351.077271 378.541504,366.749146 384.133606,382.540863 
	C385.068542,385.181183 387.463287,388.825378 383.308044,390.715698 
	C378.707214,392.808807 374.739227,390.496185 373.136841,385.807892 
	C367.757538,370.068848 371.698181,373.481171 355.777283,373.006622 
	C354.446106,372.966949 353.094238,373.146790 351.783539,372.978699 
	C346.522156,372.303833 343.683197,374.523773 342.792053,379.777466 
	C342.410217,382.028412 341.279663,384.160889 340.423096,386.320923 
	C338.778534,390.468140 334.589142,392.498657 330.553894,390.571594 
	C329.542297,390.088470 328.725189,387.244202 329.173492,385.956818 
	C334.300415,371.234009 339.699677,356.606171 345.002106,341.944244 
	C346.465790,337.896942 347.678528,333.748077 349.357605,329.794983 
	C349.983887,328.320435 351.613159,327.271912 353.146515,326.011627 
M355.901154,341.346741 
	C353.891113,347.296814 351.909607,353.256714 349.857117,359.192108 
	C349.031097,361.580750 348.908813,363.685791 352.122528,363.837982 
	C356.211365,364.031616 360.316345,363.884827 365.865662,363.884827 
	C362.909576,355.317200 360.303162,347.763123 357.696777,340.209076 
	C357.174347,340.410065 356.651917,340.611084 355.901154,341.346741 
z"/>
<path fill="#6EB452" opacity="1.000000" stroke="none" 
	d="
M189.651169,346.543213 
	C191.307007,341.260284 192.681305,336.302002 194.386169,331.460144 
	C196.337814,325.917450 199.202347,324.683075 205.063599,326.132538 
	C208.526581,326.988953 207.407120,329.298920 206.740494,331.211273 
	C203.740082,339.818481 200.580383,348.370056 197.492615,356.946930 
	C193.959488,366.760895 190.285400,376.528442 186.996521,386.423828 
	C185.736526,390.214844 183.406998,391.281494 179.866043,390.991455 
	C176.596878,390.723663 173.315720,391.899902 171.624435,386.897675 
	C165.307983,368.215851 158.351288,349.750824 151.690750,331.184387 
	C151.159485,329.703430 151.056473,328.068817 150.660706,326.020538 
	C153.194641,326.020538 155.166580,326.052917 157.137070,326.013153 
	C160.283936,325.949707 162.271072,326.959351 163.374695,330.355011 
	C168.279190,345.445190 173.478485,360.439606 179.670349,375.663177 
	C182.952118,366.081879 186.233887,356.500580 189.651169,346.543213 
z"/>
<path fill="#6FB554" opacity="1.000000" stroke="none" 
	d="
M226.108887,362.048065 
	C226.084427,366.668243 226.292343,371.304565 225.972046,375.904144 
	C225.632187,380.784363 227.759048,382.212891 232.355194,382.067810 
	C239.937149,381.828430 247.533859,382.056458 255.588669,382.547852 
	C255.670929,389.325989 255.151779,389.914032 249.046997,389.959015 
	C240.223419,390.023987 231.396591,389.850708 222.575882,390.022247 
	C217.929672,390.112579 215.945038,388.304474 215.981094,383.560944 
	C216.110168,366.579773 215.987183,349.596832 216.052536,332.614899 
	C216.074463,326.915771 216.983185,326.092743 222.908417,326.042786 
	C231.398926,325.971161 239.890640,325.986053 248.381500,326.029510 
	C255.380356,326.065308 255.815063,326.549225 256.068207,333.826050 
	C247.793610,334.206482 239.517639,334.880524 231.245026,334.841187 
	C227.221497,334.822052 225.939407,336.063507 225.993454,339.922546 
	C226.188095,353.818970 224.707611,351.765747 237.953003,352.005310 
	C243.431229,352.104370 248.907013,352.338928 254.250641,352.761414 
	C245.419006,353.010986 236.720627,353.010986 228.022247,353.010986 
	C228.036285,353.492340 228.050339,353.973663 228.064377,354.455017 
	C237.059525,353.965240 246.054688,353.475464 255.049835,352.985657 
	C255.163483,355.750824 255.277130,358.515991 254.748413,361.429443 
	C244.773682,361.734497 235.441284,361.891296 226.108887,362.048065 
z"/>
<path fill="#6DB451" opacity="1.000000" stroke="none" 
	d="
M315.547913,417.423096 
	C321.259918,426.399200 321.646576,435.455719 317.130920,444.516357 
	C314.798767,449.195831 310.460846,451.614807 305.179962,450.713074 
	C299.843842,449.801941 295.965790,446.336395 295.167419,440.977570 
	C294.402344,435.842316 294.397064,430.486786 294.854828,425.298401 
	C295.846558,414.058533 308.072327,411.156433 315.547913,417.423096 
M301.571655,422.206421 
	C298.318512,428.473328 297.912048,434.947693 301.142426,441.209412 
	C302.112335,443.089508 304.662811,445.149170 306.593445,445.256775 
	C308.497284,445.362915 311.378906,443.566162 312.354309,441.792053 
	C315.424683,436.207611 315.577789,430.201569 313.149963,424.159271 
	C310.886841,418.526886 306.892578,417.542450 301.571655,422.206421 
z"/>
<path fill="#6EB451" opacity="1.000000" stroke="none" 
	d="
M289.297913,427.544983 
	C289.178589,430.734497 288.986542,433.559967 289.156006,436.363617 
	C289.572418,443.253784 286.514801,448.265961 280.483246,450.236969 
	C275.108765,451.993286 269.572937,449.692322 266.521912,443.663300 
	C262.878815,436.464325 263.065735,428.764038 266.185944,421.515594 
	C268.781952,415.484924 274.007751,413.143005 279.511383,414.336426 
	C286.044159,415.752991 288.889008,419.449249 289.297913,427.544983 
M279.478485,444.924927 
	C285.368744,440.973755 287.173767,431.489502 282.994904,423.430359 
	C281.986938,421.486511 279.066162,419.406982 277.049866,419.431488 
	C275.045868,419.455902 271.549927,421.880035 271.362610,423.549622 
	C270.712372,429.345306 270.679504,435.346313 271.496429,441.115631 
	C271.933685,444.203583 274.892029,446.407166 279.478485,444.924927 
z"/>
<path fill="#6CB450" opacity="1.000000" stroke="none" 
	d="
M347.368896,427.382385 
	C332.805328,449.624847 332.805328,449.624847 327.895142,449.043213 
	C335.485992,437.673004 342.727081,426.745056 350.132446,415.929657 
	C350.594696,415.254456 352.344543,415.460846 353.495361,415.257080 
	C353.766357,415.620667 354.037323,415.984253 354.308319,416.347839 
	C352.063141,419.925903 349.817993,423.503998 347.368896,427.382385 
z"/>
<path fill="#6DB450" opacity="1.000000" stroke="none" 
	d="
M325.463318,416.518402 
	C329.496368,413.895630 333.231598,413.559021 336.364716,417.190582 
	C338.859406,420.082092 338.828735,427.900970 335.900574,430.175507 
	C333.964478,431.679413 330.433807,432.972412 328.463074,432.200348 
	C324.551727,430.668030 322.737244,426.757721 323.252167,422.401093 
	C323.478088,420.489868 324.545685,418.678131 325.463318,416.518402 
M333.529846,426.473572 
	C333.659698,425.491364 334.104645,424.417511 333.851349,423.546783 
	C333.379120,421.923492 332.500763,420.418304 331.791443,418.863922 
	C330.707214,419.384277 328.771912,419.801025 328.693665,420.443878 
	C328.427338,422.631592 328.681305,424.927185 329.134888,427.098389 
	C329.188202,427.353485 331.715240,427.091797 333.529846,426.473572 
z"/>
<path fill="#6DB451" opacity="1.000000" stroke="none" 
	d="
M357.002625,433.948730 
	C360.243622,438.602539 360.888000,443.054321 357.600250,447.587341 
	C354.982025,451.197205 349.644745,451.453644 346.839478,448.119202 
	C344.641022,445.505951 344.169922,437.696167 346.445129,434.840729 
	C349.334229,431.214966 353.022461,431.695007 357.002625,433.948730 
M353.147919,445.489685 
	C353.661682,443.075623 354.313232,440.671631 354.491333,438.233063 
	C354.510681,437.968170 351.248749,436.717377 350.446136,437.274445 
	C347.709717,439.173737 349.021576,444.215332 353.147919,445.489685 
z"/>
<path fill="#55A833" opacity="1.000000" stroke="none" 
	d="
M256.289581,333.512543 
	C255.815063,326.549225 255.380356,326.065308 248.381500,326.029510 
	C239.890640,325.986053 231.398926,325.971161 222.908417,326.042786 
	C216.983185,326.092743 216.074463,326.915771 216.052536,332.614899 
	C215.987183,349.596832 216.110168,366.579773 215.981094,383.560944 
	C215.945038,388.304474 217.929672,390.112579 222.575882,390.022247 
	C231.396591,389.850708 240.223419,390.023987 249.046997,389.959015 
	C255.151779,389.914032 255.670929,389.325989 256.059814,382.591003 
	C258.195953,389.503723 257.217712,390.968292 250.032471,390.990356 
	C240.219757,391.020477 230.404343,391.106232 220.596237,390.889618 
	C218.748459,390.848816 216.929443,389.504913 215.010437,387.918091 
	C214.906784,367.047089 214.889847,347.020294 214.872910,326.993500 
	C216.778549,326.331268 218.673431,325.135345 220.591660,325.096619 
	C230.340118,324.899811 240.094681,324.981995 249.847000,325.007721 
	C257.124756,325.026917 257.573486,325.606964 256.289581,333.512543 
z"/>
<path fill="#6EB451" opacity="1.000000" stroke="none" 
	d="
M251.961456,421.120178 
	C249.420746,422.507080 246.880035,423.893982 244.291931,425.306732 
	C242.562607,419.989258 247.507614,415.530914 255.610413,415.581848 
	C255.978363,427.072693 255.949188,438.071411 255.597519,448.899841 
	C254.513611,446.357697 253.290314,444.026215 253.078766,441.606323 
	C252.483505,434.797089 252.304550,427.951447 251.961456,421.120178 
z"/>
<path fill="#6CB450" opacity="1.000000" stroke="none" 
	d="
M403.918915,434.955597 
	C397.668549,434.955597 391.903381,434.955597 386.138214,434.955597 
	C386.162628,434.215271 386.187073,433.474976 386.211487,432.734650 
	C395.055664,432.734650 403.899811,432.734650 412.743988,432.734650 
	C412.796173,433.310822 412.848328,433.886993 412.900513,434.463165 
	C410.068390,434.627319 407.236237,434.791443 403.918915,434.955597 
z"/>
<path fill="#5AAA39" opacity="1.000000" stroke="none" 
	d="
M437.298248,390.316589 
	C445.913147,389.760529 445.995697,389.690216 446.003815,380.560028 
	C446.017151,365.601929 446.014709,350.643860 446.004974,335.685760 
	C445.999329,326.984772 445.987122,326.984772 437.408813,325.299744 
	C440.079956,325.134125 443.112274,325.108337 446.588867,325.582092 
	C447.041107,347.664581 447.049072,369.247559 447.057037,390.830505 
	C443.918671,390.732361 440.780304,390.634216 437.298248,390.316589 
z"/>
<path fill="#72B757" opacity="1.000000" stroke="none" 
	d="
M447.291748,390.502014 
	C447.049072,369.247559 447.041107,347.664581 447.043365,325.625366 
	C447.363617,326.596375 447.939423,328.022827 447.943481,329.450958 
	C447.998138,348.711823 447.979736,367.972961 447.949341,387.233978 
	C447.947784,388.214050 447.673676,389.193695 447.291748,390.502014 
z"/>
<path fill="#7FBD66" opacity="1.000000" stroke="none" 
	d="
M393.766663,326.036987 
	C394.040710,346.970947 394.056580,368.061005 394.055450,389.808838 
	C394.038452,390.466583 393.988861,390.834778 393.988861,390.834778 
	C393.663330,389.414459 393.059143,387.995087 393.054443,386.573700 
	C392.990692,367.417480 393.003113,348.260986 393.030609,329.104584 
	C393.032013,328.133850 393.342133,327.163574 393.766663,326.036987 
z"/>
<path fill="#72B757" opacity="1.000000" stroke="none" 
	d="
M214.655807,327.345184 
	C214.889847,347.020294 214.906784,367.047089 214.899750,387.541504 
	C214.593384,386.741302 214.068420,385.474121 214.065140,384.205536 
	C214.018539,366.182739 214.037582,348.159760 214.066086,330.136871 
	C214.067368,329.323334 214.309021,328.510193 214.655807,327.345184 
z"/>
<path fill="#76B95B" opacity="1.000000" stroke="none" 
	d="
M189.127869,434.837585 
	C189.679001,433.918243 190.213318,432.210541 190.783798,432.198364 
	C198.682205,432.029846 206.586609,432.043182 214.485931,432.197021 
	C215.126266,432.209503 215.740280,433.574951 215.795090,434.418427 
	C206.525055,434.629272 197.826447,434.733429 189.127869,434.837585 
z"/>
<path fill="#5AAA39" opacity="1.000000" stroke="none" 
	d="
M394.437439,390.876923 
	C393.988861,390.834778 394.038452,390.466583 394.068970,390.283630 
	C402.889832,389.666809 402.987213,389.582245 403.002808,380.884796 
	C403.021332,370.569763 402.977631,360.254456 403.040985,349.939758 
	C403.052002,348.146240 403.459473,346.355194 403.855164,344.351135 
	C404.017059,356.791290 404.010223,369.443329 403.997314,382.095367 
	C403.988098,391.124359 403.984406,391.124359 394.437439,390.876923 
z"/>
<path fill="#7FBD66" opacity="1.000000" stroke="none" 
	d="
M323.893188,368.496429 
	C323.677582,368.319000 323.437653,367.692322 323.334106,367.043823 
	C321.720154,356.935272 321.723785,356.988159 311.198792,356.906158 
	C306.748413,356.871521 302.300140,356.558472 297.461365,356.259583 
	C303.981293,356.103302 310.900696,356.268707 317.796875,355.942657 
	C322.474792,355.721466 324.564453,357.329590 324.027191,362.118195 
	C323.808167,364.070099 323.953033,366.062836 323.893188,368.496429 
z"/>
<path fill="#7FBD66" opacity="1.000000" stroke="none" 
	d="
M255.920013,449.070160 
	C255.949188,438.071411 255.978363,427.072693 256.010925,415.616577 
	C256.342957,418.064453 256.949097,420.969818 256.947784,423.874939 
	C256.943970,432.312805 256.696625,440.750610 256.267700,449.319580 
	C255.990555,449.450714 255.920029,449.070160 255.920013,449.070160 
z"/>
<path fill="#5AAA39" opacity="1.000000" stroke="none" 
	d="
M255.597534,448.899841 
	C255.920029,449.070160 255.990555,449.450714 256.019714,449.641998 
	C252.510208,450.178253 252.012299,447.939301 252.016418,445.174683 
	C252.027908,437.462585 251.995270,429.750458 251.970734,421.579254 
	C252.304550,427.951447 252.483505,434.797089 253.078766,441.606323 
	C253.290314,444.026215 254.513611,446.357697 255.597534,448.899841 
z"/>
<path fill="#5AAA39" opacity="1.000000" stroke="none" 
	d="
M226.569427,362.036133 
	C235.441284,361.891296 244.773682,361.734497 254.482544,361.708435 
	C245.582672,361.900818 236.306320,361.962494 226.569427,362.036133 
z"/>
<path fill="#55A833" opacity="1.000000" stroke="none" 
	d="
M189.585739,434.877686 
	C197.826447,434.733429 206.525055,434.629272 215.605087,434.681946 
	C207.338898,434.865143 198.691254,434.891479 189.585739,434.877686 
z"/>
<path fill="#7FBD66" opacity="1.000000" stroke="none" 
	d="
M217.462311,162.112213 
	C209.571701,162.230881 201.218643,162.309479 192.479156,162.269928 
	C200.395096,162.125244 208.697479,162.098694 217.462311,162.112213 
z"/>
<path fill="#4C6971" opacity="1.000000" stroke="none" 
	d="
M246.053833,205.725403 
	C246.019012,205.724518 246.088638,205.726273 246.053833,205.725403 
z"/>
<path fill="#4C6971" opacity="1.000000" stroke="none" 
	d="
M343.104065,188.085312 
	C343.310364,187.722214 343.686249,187.531235 344.062134,187.340271 
	C343.998474,187.693436 343.934784,188.046600 343.747406,188.495132 
	C343.623688,188.590515 343.273651,188.257431 343.104065,188.085312 
z"/>
<path fill="#4C6971" opacity="1.000000" stroke="none" 
	d="
M346.807556,185.614685 
	C346.850952,185.477020 346.941193,185.430557 347.031433,185.384094 
	C346.972412,185.491364 346.913391,185.598618 346.807556,185.614685 
z"/>
<path fill="#4C6971" opacity="1.000000" stroke="none" 
	d="
M356.015320,341.079407 
	C356.651917,340.611084 357.174347,340.410065 357.696777,340.209045 
	C360.303162,347.763123 362.909576,355.317200 365.865662,363.884827 
	C360.316345,363.884827 356.211365,364.031616 352.122528,363.837982 
	C348.908813,363.685791 349.031097,361.580750 349.857117,359.192108 
	C351.909607,353.256714 353.891113,347.296814 356.015320,341.079407 
z"/>
<path fill="#55A833" opacity="1.000000" stroke="none" 
	d="
M255.029282,353.002563 
	C246.054688,353.475464 237.059525,353.965240 228.064377,354.455017 
	C228.050339,353.973663 228.036285,353.492340 228.022247,353.010986 
	C236.720627,353.010986 245.419006,353.010986 254.591461,353.011047 
	C255.065521,353.011108 255.008728,353.019440 255.029282,353.002563 
z"/>
<path fill="#4C6971" opacity="1.000000" stroke="none" 
	d="
M301.815277,421.904358 
	C306.892578,417.542450 310.886841,418.526886 313.149963,424.159271 
	C315.577789,430.201569 315.424683,436.207611 312.354309,441.792053 
	C311.378906,443.566162 308.497284,445.362915 306.593445,445.256775 
	C304.662811,445.149170 302.112335,443.089508 301.142426,441.209412 
	C297.912048,434.947693 298.318512,428.473328 301.815277,421.904358 
z"/>
<path fill="#4C6971" opacity="1.000000" stroke="none" 
	d="
M279.126801,445.016968 
	C274.892029,446.407166 271.933685,444.203583 271.496429,441.115631 
	C270.679504,435.346313 270.712372,429.345306 271.362610,423.549622 
	C271.549927,421.880035 275.045868,419.455902 277.049866,419.431488 
	C279.066162,419.406982 281.986938,421.486511 282.994904,423.430359 
	C287.173767,431.489502 285.368744,440.973755 279.126801,445.016968 
z"/>
<path fill="#4C6971" opacity="1.000000" stroke="none" 
	d="
M333.312683,426.771606 
	C331.715240,427.091797 329.188202,427.353485 329.134888,427.098389 
	C328.681305,424.927185 328.427338,422.631592 328.693665,420.443878 
	C328.771912,419.801025 330.707214,419.384277 331.791443,418.863953 
	C332.500763,420.418304 333.379120,421.923492 333.851349,423.546783 
	C334.104645,424.417511 333.659698,425.491364 333.312683,426.771606 
z"/>
<path fill="#4C6971" opacity="1.000000" stroke="none" 
	d="
M352.769592,445.580078 
	C349.021576,444.215332 347.709717,439.173737 350.446136,437.274445 
	C351.248749,436.717377 354.510681,437.968170 354.491333,438.233063 
	C354.313232,440.671631 353.661682,443.075623 352.769592,445.580078 
z"/>
</svg>