<svg version="1.1" id="Layer_1" xmlns="http://www.w3.org/2000/svg" xmlns:xlink="http://www.w3.org/1999/xlink" x="0px" y="0px"
	 width="100%" viewBox="0 0 512 512" enable-background="new 0 0 512 512" xml:space="preserve">
<path fill="#A9D9F7" opacity="1.000000" stroke="none" 
	d="
M513.000000,225.000000 
	C513.000000,246.020889 513.000000,267.041779 512.654663,288.205750 
	C511.874695,289.186218 511.229492,289.978119 511.037079,290.867920 
	C508.037323,304.740875 505.635925,318.769287 502.010010,332.474396 
	C497.044769,351.241730 488.965363,368.805115 479.095612,385.537292 
	C469.145355,402.405975 458.176880,418.589355 444.071381,432.233429 
	C432.385925,443.536652 420.462982,454.769836 407.519836,464.543671 
	C396.541443,472.833923 383.953857,478.993195 371.830566,486.035095 
	C371.414337,485.949707 371.245819,485.924591 371.107849,485.438599 
	C371.163025,479.333771 371.187653,473.689789 371.509125,467.884827 
	C402.525330,451.471985 428.950134,429.963043 450.618683,402.774780 
	C474.216187,373.166107 490.554718,339.985443 498.980530,302.578003 
	C500.353333,295.485901 501.599487,288.768158 502.899689,281.616974 
	C503.351624,276.768005 503.674225,272.344147 504.161713,267.938568 
	C505.563965,255.265839 503.993988,252.286423 493.136353,246.745636 
	C504.441040,233.535187 507.093140,218.825394 499.507080,203.764923 
	C489.805664,184.504715 473.107880,178.860092 452.379944,183.771210 
	C454.688904,164.901093 449.014709,149.669815 431.904755,141.243042 
	C412.268127,131.571884 395.504364,137.601608 381.734650,154.369705 
	C376.708710,145.428513 370.240021,138.721603 360.574158,135.057251 
	C355.042816,134.007202 349.729004,131.982178 344.664001,132.481430 
	C317.199982,135.188477 302.025452,159.708267 310.901611,186.331177 
	C306.532074,190.750580 302.305786,194.867950 298.040344,198.567856 
	C297.662567,195.853760 297.351044,193.552780 296.981171,191.261200 
	C293.910675,172.238159 288.836273,153.964920 277.609711,137.874008 
	C264.474060,119.046783 246.536331,112.846077 225.060745,120.489998 
	C203.325989,128.226166 187.225464,143.485336 173.055695,161.008621 
	C167.752502,167.566910 162.960480,174.538528 157.667313,181.032593 
	C157.337433,180.588699 157.258804,180.438400 157.216217,180.278488 
	C145.273941,135.440750 129.487839,92.066505 107.991562,50.861126 
	C107.547623,50.010159 107.440689,48.983372 107.531464,48.024803 
	C117.303726,42.137924 126.405991,35.667000 136.198624,30.506029 
	C163.470703,16.132940 192.287781,6.306317 223.108063,2.920531 
	C223.800674,2.844444 224.372070,1.664846 225.000000,0.999999 
	C246.020889,1.000000 267.041779,1.000000 288.200348,1.346623 
	C289.175537,2.126985 289.967682,2.771170 290.857361,2.962967 
	C304.721039,5.951674 318.741852,8.335836 332.434631,11.961466 
	C350.227905,16.672846 366.896576,24.323370 382.946991,33.389618 
	C399.249878,42.598480 414.693573,53.105186 428.172272,65.991058 
	C439.811035,77.117851 450.667389,89.182877 460.908600,101.624222 
	C477.245728,121.471222 489.050751,144.121277 497.864471,168.168900 
	C504.363342,185.900635 509.418884,204.125946 511.082275,223.102005 
	C511.142212,223.785446 512.335083,224.369583 513.000000,225.000000 
z"/>
<path fill="#000000" opacity="0" stroke="none" 
	d="
M513.000000,224.531342 
	C512.335083,224.369583 511.142212,223.785446 511.082275,223.102005 
	C509.418884,204.125946 504.363342,185.900635 497.864471,168.168900 
	C489.050751,144.121277 477.245728,121.471222 460.908600,101.624222 
	C450.667389,89.182877 439.811035,77.117851 428.172272,65.991058 
	C414.693573,53.105186 399.249878,42.598480 382.946991,33.389618 
	C366.896576,24.323370 350.227905,16.672846 332.434631,11.961466 
	C318.741852,8.335836 304.721039,5.951674 290.857361,2.962967 
	C289.967682,2.771170 289.175537,2.126985 288.669006,1.346623 
	C363.593719,1.000000 438.187408,1.000000 513.000000,1.000000 
	C513.000000,75.354088 513.000000,149.708389 513.000000,224.531342 
z"/>
<path fill="#000000" opacity="0" stroke="none" 
	d="
M372.078339,486.095398 
	C383.953857,478.993195 396.541443,472.833923 407.519836,464.543671 
	C420.462982,454.769836 432.385925,443.536652 444.071381,432.233429 
	C458.176880,418.589355 469.145355,402.405975 479.095612,385.537292 
	C488.965363,368.805115 497.044769,351.241730 502.010010,332.474396 
	C505.635925,318.769287 508.037323,304.740875 511.037079,290.867920 
	C511.229492,289.978119 511.874695,289.186218 512.654663,288.674377 
	C513.000000,363.593719 513.000000,438.187408 513.000000,513.000000 
	C438.645905,513.000000 364.291626,513.000000 289.176971,512.633545 
	C288.927826,511.868439 289.388550,511.223969 289.957672,511.107117 
	C303.283661,508.370819 316.884552,506.584106 329.883087,502.751221 
	C342.940430,498.901062 355.399902,493.023224 368.447449,488.033051 
	C369.517487,487.646637 370.261444,487.261139 371.266205,486.906830 
	C371.710785,486.657135 371.894562,486.376282 372.078339,486.095398 
z"/>
<path fill="#000000" opacity="0" stroke="none" 
	d="
M225.000000,513.000000 
	C150.406296,513.000000 75.812599,513.000000 1.000000,513.000000 
	C1.000000,438.645905 1.000000,364.291626 1.343119,289.138641 
	C2.123079,289.341888 2.791162,290.306610 2.959416,291.351776 
	C4.094576,298.403046 4.610123,305.595367 6.280027,312.511780 
	C12.197074,337.019073 20.586718,360.604919 33.145977,382.618011 
	C42.181393,398.454712 52.395531,413.509705 64.641808,426.925201 
	C79.051125,442.710266 94.450912,457.629395 112.696747,469.091644 
	C122.212463,475.069550 132.149658,480.376526 142.035370,486.331390 
	C157.044266,493.497101 171.900284,500.355255 188.371155,504.017426 
	C199.979294,506.465118 211.243042,508.700439 222.479507,511.065399 
	C223.414017,511.262054 224.164185,512.334473 225.000000,513.000000 
z"/>
<path fill="#000000" opacity="0" stroke="none" 
	d="
M224.531342,0.999999 
	C224.372070,1.664846 223.800674,2.844444 223.108063,2.920531 
	C192.287781,6.306317 163.470703,16.132940 136.198624,30.506029 
	C126.405991,35.667000 117.303726,42.137924 107.374191,47.695999 
	C103.309486,41.191322 99.756973,35.001652 96.204453,28.811979 
	C95.858047,28.939493 95.511635,29.067005 95.165222,29.194519 
	C95.165222,30.456381 95.165222,31.718241 95.086349,33.444229 
	C95.058167,41.618965 95.108856,49.329575 95.097633,57.248333 
	C95.035728,57.456478 94.959000,57.883991 94.641602,58.007790 
	C87.588104,64.415253 80.852013,70.698914 73.972656,76.658524 
	C66.351204,64.480965 58.873009,52.627449 51.394814,40.773937 
	C50.883778,41.038857 50.372746,41.303776 49.861710,41.568691 
	C50.306355,43.372101 50.750999,45.175507 51.113693,47.436676 
	C51.369846,54.462677 51.396812,61.065334 52.118721,67.591110 
	C53.211647,77.470764 54.788273,87.296906 55.995987,97.439857 
	C54.167053,99.816772 52.501514,101.899612 50.536213,103.822647 
	C37.269032,84.559158 22.314831,67.092903 5.813403,50.615704 
	C6.270243,52.070183 6.727083,53.524666 7.101964,55.390518 
	C10.832050,70.865402 14.312339,86.023285 18.561705,100.962402 
	C21.927214,112.794243 26.236052,124.357758 30.063589,136.409088 
	C27.404243,142.311157 24.683180,147.790207 22.232281,153.387543 
	C12.600018,175.385666 5.746351,198.171753 2.920495,222.095734 
	C2.837742,222.796341 1.664695,223.368149 1.000002,224.000000 
	C1.000000,149.739456 1.000000,75.478920 1.000000,1.000000 
	C75.354088,1.000000 149.708389,1.000000 224.531342,0.999999 
z"/>
<path fill="#A9D8F7" opacity="1.000000" stroke="none" 
	d="
M1.000002,224.468658 
	C1.664695,223.368149 2.837742,222.796341 2.920495,222.095734 
	C5.746351,198.171753 12.600018,175.385666 22.232281,153.387543 
	C24.683180,147.790207 27.404243,142.311157 30.372398,136.569641 
	C31.315451,137.555710 31.902815,138.742706 32.456821,139.945084 
	C44.053905,165.114700 55.647205,190.286072 67.087982,215.733582 
	C58.288315,225.146393 50.989613,235.187927 45.705154,246.943146 
	C37.896622,246.998489 30.566147,246.955124 23.237335,247.045837 
	C13.884152,247.161606 7.338811,253.241455 8.167515,262.437775 
	C9.342662,275.478638 10.573362,288.659607 13.540953,301.369629 
	C29.452606,369.518311 67.294304,422.224701 126.594292,459.460571 
	C131.505280,462.544312 138.364319,464.436798 140.904770,468.848450 
	C143.457565,473.281464 141.741699,480.172607 141.896484,485.986542 
	C132.149658,480.376526 122.212463,475.069550 112.696747,469.091644 
	C94.450912,457.629395 79.051125,442.710266 64.641808,426.925201 
	C52.395531,413.509705 42.181393,398.454712 33.145977,382.618011 
	C20.586718,360.604919 12.197074,337.019073 6.280027,312.511780 
	C4.610123,305.595367 4.094576,298.403046 2.959416,291.351776 
	C2.791162,290.306610 2.123079,289.341888 1.343119,288.669983 
	C1.000000,267.645782 1.000000,246.291550 1.000002,224.468658 
z"/>
<path fill="#A185D6" opacity="1.000000" stroke="none" 
	d="
M225.468658,513.000000 
	C224.164185,512.334473 223.414017,511.262054 222.479507,511.065399 
	C211.243042,508.700439 199.979294,506.465118 188.360779,503.600830 
	C187.665421,500.049286 187.404724,497.082428 186.981842,494.138916 
	C186.305847,489.433685 188.036224,487.886749 192.963562,487.901398 
	C251.349121,488.074768 309.735321,488.025055 368.121368,488.033966 
	C355.399902,493.023224 342.940430,498.901062 329.883087,502.751221 
	C316.884552,506.584106 303.283661,508.370819 289.957672,511.107117 
	C289.388550,511.223969 288.927826,511.868439 288.708313,512.633545 
	C267.979095,513.000000 246.958206,513.000000 225.468658,513.000000 
z"/>
<path fill="#A185D6" opacity="1.000000" stroke="none" 
	d="
M498.853851,302.952393 
	C490.554718,339.985443 474.216187,373.166107 450.618683,402.774780 
	C428.950134,429.963043 402.525330,451.471985 371.019958,467.870636 
	C310.743256,468.011627 251.252533,468.030701 191.762085,467.911377 
	C189.311752,467.906464 186.213989,467.323517 184.516174,465.792206 
	C168.434494,451.287445 155.491714,434.256714 145.142624,415.262085 
	C130.788574,388.916809 120.773544,360.955994 114.427170,331.668427 
	C112.810379,324.207153 111.397568,316.695831 110.123016,309.168243 
	C109.224525,303.861633 110.076515,303.044373 115.413948,302.997498 
	C116.913605,302.984314 118.413467,302.995270 119.913239,302.995117 
	C246.226776,302.980865 372.540314,302.966644 498.853851,302.952393 
z"/>
<path fill="#896FC9" opacity="1.000000" stroke="none" 
	d="
M498.980530,302.578003 
	C372.540314,302.966644 246.226776,302.980865 119.913239,302.995117 
	C118.413467,302.995270 116.913605,302.984314 115.413948,302.997498 
	C110.076515,303.044373 109.224525,303.861633 110.123016,309.168243 
	C111.397568,316.695831 112.810379,324.207153 114.427170,331.668427 
	C120.773544,360.955994 130.788574,388.916809 145.142624,415.262085 
	C155.491714,434.256714 168.434494,451.287445 184.516174,465.792206 
	C186.213989,467.323517 189.311752,467.906464 191.762085,467.911377 
	C251.252533,468.030701 310.743256,468.011627 370.723083,468.031677 
	C371.187653,473.689789 371.163025,479.333771 371.072449,485.682190 
	C371.006500,486.386658 371.005402,486.875671 371.005402,486.875671 
	C370.261444,487.261139 369.517487,487.646637 368.447449,488.033051 
	C309.735321,488.025055 251.349121,488.074768 192.963562,487.901398 
	C188.036224,487.886749 186.305847,489.433685 186.981842,494.138916 
	C187.404724,497.082428 187.665421,500.049286 188.009247,503.422241 
	C171.900284,500.355255 157.044266,493.497101 142.035370,486.331390 
	C141.741699,480.172607 143.457565,473.281464 140.904770,468.848450 
	C138.364319,464.436798 131.505280,462.544312 126.594292,459.460571 
	C67.294304,422.224701 29.452606,369.518311 13.540953,301.369629 
	C10.573362,288.659607 9.342662,275.478638 8.167515,262.437775 
	C7.338811,253.241455 13.884152,247.161606 23.237335,247.045837 
	C30.566147,246.955124 37.896622,246.998489 46.161606,246.967255 
	C55.723713,246.916550 64.350571,246.880905 73.442146,246.909012 
	C78.606773,246.930893 83.306694,246.889008 88.471146,246.909119 
	C95.947861,246.928467 102.960030,246.885803 110.312515,246.913300 
	C111.108482,247.064178 111.564133,247.144913 111.826050,247.491287 
	C109.792160,251.025253 106.877785,254.131577 106.355003,257.598541 
	C105.497200,263.287323 105.745903,269.256683 106.346260,275.022491 
	C107.075172,282.022980 107.442497,281.986633 114.545502,281.986694 
	C169.683914,281.987244 224.822342,281.979065 279.960754,281.988922 
	C354.255707,282.002258 428.550659,282.029297 502.845642,282.050446 
	C501.599487,288.768158 500.353333,295.485901 498.980530,302.578003 
z"/>
<path fill="#A185D5" opacity="1.000000" stroke="none" 
	d="
M502.899658,281.616974 
	C428.550659,282.029297 354.255707,282.002258 279.960754,281.988922 
	C224.822342,281.979065 169.683914,281.987244 114.545502,281.986694 
	C107.442497,281.986633 107.075172,282.022980 106.346260,275.022491 
	C105.745903,269.256683 105.497200,263.287323 106.355003,257.598541 
	C106.877785,254.131577 109.792160,251.025253 112.290070,247.442688 
	C123.650703,247.063812 134.353577,246.999191 145.519623,246.981583 
	C154.650696,246.993790 163.318588,246.959000 172.452637,246.991180 
	C182.609100,247.015457 192.299423,246.972717 202.455002,246.996811 
	C218.903503,247.014633 234.886749,246.965622 251.342606,246.985352 
	C273.551147,247.008698 295.287079,246.963303 317.485168,246.987518 
	C323.957550,247.011169 329.967804,246.965210 336.443573,246.987717 
	C343.280121,247.010849 349.651154,246.965515 356.484741,246.989868 
	C365.151672,247.013611 373.356018,246.967682 382.061279,246.976501 
	C388.694824,246.992020 394.827362,246.952789 401.427551,246.973038 
	C407.936188,246.996368 413.977203,246.960220 420.482483,246.981415 
	C431.970032,247.000351 442.993317,246.961945 454.481323,246.979828 
	C467.618225,247.036911 480.290375,247.037689 492.962494,247.038483 
	C503.993988,252.286423 505.563965,255.265839 504.161713,267.938568 
	C503.674225,272.344147 503.351624,276.768005 502.899658,281.616974 
z"/>
<path fill="#FCF8F1" opacity="1.000000" stroke="none" 
	d="
M171.986481,246.924194 
	C163.318588,246.959000 154.650696,246.993790 145.484848,246.571915 
	C142.147568,233.656891 143.264954,221.308258 146.228424,208.706696 
	C149.346481,201.319122 152.251785,194.229767 155.415222,186.924866 
	C156.427353,184.913437 157.181381,183.117569 157.935394,181.321686 
	C162.960480,174.538528 167.752502,167.566910 173.055695,161.008621 
	C187.225464,143.485336 203.325989,128.226166 225.060745,120.489998 
	C246.536331,112.846077 264.474060,119.046783 277.609711,137.874008 
	C288.836273,153.964920 293.910675,172.238159 296.981171,191.261200 
	C297.351044,193.552780 297.662567,195.853760 297.895355,198.876312 
	C287.603455,209.683334 277.417389,219.764420 267.182617,229.439850 
	C265.115540,215.193344 258.870850,203.900421 246.976181,195.614563 
	C230.875961,183.831238 208.617584,183.563629 192.110413,194.668777 
	C175.006165,206.175568 166.883423,227.267731 171.986481,246.924194 
z"/>
<path fill="#73D16B" opacity="1.000000" stroke="none" 
	d="
M420.018188,246.924103 
	C413.977203,246.960220 407.936188,246.996368 401.439484,246.577911 
	C401.445190,244.197083 401.768158,242.224915 402.389648,240.351807 
	C407.826904,223.965424 413.246002,207.572220 418.852509,191.243530 
	C419.972717,187.980988 420.100616,185.290054 416.784637,183.625458 
	C413.303864,181.878098 411.632416,184.652557 410.036926,186.974106 
	C403.837372,195.995041 397.731995,205.080795 391.513885,214.088821 
	C390.505035,215.550369 389.103485,216.740829 387.826477,217.590363 
	C388.481659,196.163025 383.490479,176.757126 372.982452,158.511215 
	C363.542419,142.119690 353.107544,141.674362 341.663330,156.090302 
	C339.578552,157.827805 337.798859,159.442886 336.026733,160.678558 
	C337.292969,157.452011 338.269318,154.434738 339.863068,151.789459 
	C344.762177,143.658218 352.571198,139.085541 360.906525,135.247391 
	C370.240021,138.721603 376.708710,145.428513 381.734650,154.369705 
	C395.504364,137.601608 412.268127,131.571884 431.904755,141.243042 
	C449.014709,149.669815 454.688904,164.901093 452.379944,183.771210 
	C473.107880,178.860092 489.805664,184.504715 499.507080,203.764923 
	C507.093140,218.825394 504.441040,233.535187 493.136353,246.745636 
	C480.290375,247.037689 467.618225,247.036911 454.647583,246.690186 
	C459.776031,238.224152 465.346039,230.193100 470.504761,221.906006 
	C471.492920,220.318542 471.738098,216.601044 470.776855,215.850662 
	C469.259094,214.665833 466.433289,215.083527 464.154633,214.999710 
	C463.610779,214.979691 463.025604,215.635666 462.485901,216.018082 
	C453.304657,222.523773 444.085327,228.976944 434.966187,235.568710 
	C429.896454,239.233368 424.995331,243.131302 420.018188,246.924103 
z"/>
<path fill="#FF4D4D" opacity="1.000000" stroke="none" 
	d="
M336.019196,161.057968 
	C337.798859,159.442886 339.578552,157.827805 341.827393,156.385559 
	C343.605011,158.265701 344.884399,159.996231 346.226288,161.676880 
	C367.282684,188.049072 369.489410,216.582962 356.022156,246.920181 
	C349.651154,246.965515 343.280121,247.010849 336.295593,246.684265 
	C329.950104,239.094025 323.305878,239.309662 317.023010,246.917923 
	C295.287079,246.963303 273.551147,247.008698 251.507248,246.693130 
	C256.543274,240.836624 261.887299,235.341064 267.231323,229.845520 
	C277.417389,219.764420 287.603455,209.683334 297.934540,199.293793 
	C302.305786,194.867950 306.532074,190.750580 311.201111,186.187469 
	C319.768982,177.513794 327.894073,169.285873 336.019196,161.057968 
M352.156586,201.233154 
	C353.646729,196.735977 354.151764,191.981216 350.089050,188.904327 
	C347.456329,186.910431 343.559296,185.494492 340.319031,185.654007 
	C335.634735,185.884537 331.110199,191.882416 331.109039,196.079803 
	C331.107880,200.317642 334.549561,205.301270 338.371552,206.596008 
	C343.675903,208.392914 348.351044,206.740814 352.156586,201.233154 
M338.625549,216.052200 
	C333.543762,217.555420 331.020203,220.821136 330.938019,226.255280 
	C330.867340,230.925674 332.543304,234.348633 336.769104,236.303391 
	C340.947296,238.236145 346.783722,237.081512 349.621307,233.816422 
	C352.813171,230.143784 354.056335,226.063065 351.578705,221.473343 
	C349.286652,217.227386 344.506500,215.092163 338.625549,216.052200 
z"/>
<path fill="#73D16C" opacity="1.000000" stroke="none" 
	d="
M157.667313,181.032593 
	C157.181381,183.117569 156.427353,184.913437 154.982941,186.854416 
	C148.197495,186.588348 142.102417,186.177185 135.830490,185.437256 
	C132.083832,171.283203 128.480988,157.466400 124.950691,143.631058 
	C115.913315,108.213211 106.927788,72.782097 97.826218,37.380795 
	C97.417465,35.790939 96.073555,34.441513 95.165222,32.980103 
	C95.165222,31.718241 95.165222,30.456381 95.165222,29.194519 
	C95.511635,29.067005 95.858047,28.939493 96.204453,28.811979 
	C99.756973,35.001652 103.309486,41.191322 107.019272,47.709801 
	C107.440689,48.983372 107.547623,50.010159 107.991562,50.861126 
	C129.487839,92.066505 145.273941,135.440750 157.216217,180.278488 
	C157.258804,180.438400 157.337433,180.588699 157.667313,181.032593 
z"/>
<path fill="#68BC5F" opacity="1.000000" stroke="none" 
	d="
M336.026733,160.678558 
	C327.894073,169.285873 319.768982,177.513794 311.344360,185.885437 
	C302.025452,159.708267 317.199982,135.188477 344.664001,132.481430 
	C349.729004,131.982178 355.042816,134.007202 360.574158,135.057251 
	C352.571198,139.085541 344.762177,143.658218 339.863068,151.789459 
	C338.269318,154.434738 337.292969,157.452011 336.026733,160.678558 
z"/>
<path fill="#A185D6" opacity="1.000000" stroke="none" 
	d="
M371.266205,486.906860 
	C371.005402,486.875671 371.006500,486.386658 371.041931,486.143066 
	C371.245819,485.924591 371.414337,485.949707 371.830566,486.035095 
	C371.894562,486.376282 371.710785,486.657135 371.266205,486.906860 
z"/>
<path fill="#68BC5F" opacity="1.000000" stroke="none" 
	d="
M67.241249,215.457092 
	C55.647205,190.286072 44.053905,165.114700 32.456821,139.945084 
	C31.902815,138.742706 31.315451,137.555710 30.434814,136.200989 
	C26.236052,124.357758 21.927214,112.794243 18.561705,100.962402 
	C14.312339,86.023285 10.832050,70.865402 7.423924,55.483562 
	C12.829108,64.333229 18.026485,73.400574 22.793257,82.688919 
	C34.960464,106.397430 46.915371,130.214813 58.995827,153.967972 
	C65.411903,166.583572 71.903297,179.160919 78.394218,191.738251 
	C78.853584,192.628342 79.590057,193.375427 80.197678,194.189011 
	C78.283661,185.286697 75.368774,176.836075 73.097176,168.215927 
	C68.615852,151.210495 64.491005,134.111115 60.155819,116.631432 
	C58.781727,109.856773 57.470554,103.501274 56.159378,97.145782 
	C54.788273,87.296906 53.211647,77.470764 52.118721,67.591110 
	C51.396812,61.065334 51.369846,54.462677 51.447876,47.537903 
	C53.882710,52.200008 56.130547,57.140018 57.883957,62.249695 
	C72.244209,104.097458 86.503754,145.979782 100.843033,187.834778 
	C101.363022,189.352585 102.391861,190.696091 102.925529,192.363251 
	C89.253258,197.733856 77.726303,205.787842 67.241249,215.457092 
M81.460022,197.489380 
	C81.460022,197.489380 81.516693,197.463089 81.460022,197.489380 
z"/>
<path fill="#67BC5F" opacity="1.000000" stroke="none" 
	d="
M95.086349,33.444229 
	C96.073555,34.441513 97.417465,35.790939 97.826218,37.380795 
	C106.927788,72.782097 115.913315,108.213211 124.950691,143.631058 
	C128.480988,157.466400 132.083832,171.283203 135.385864,185.519806 
	C128.477585,186.810669 121.837074,187.690201 115.141464,188.141296 
	C113.350639,180.293823 111.538185,172.891678 109.897568,165.451660 
	C107.550934,154.809937 105.329948,144.140533 103.060951,133.010468 
	C103.031013,131.706299 103.035271,130.870682 102.954071,130.043457 
	C100.604523,106.108620 98.246437,82.174629 95.831451,58.006218 
	C95.637535,57.470245 95.432983,57.226330 95.159538,57.040188 
	C95.108856,49.329575 95.058167,41.618965 95.086349,33.444229 
z"/>
<path fill="#73D16B" opacity="1.000000" stroke="none" 
	d="
M103.055321,133.482941 
	C105.329948,144.140533 107.550934,154.809937 109.897568,165.451660 
	C111.538185,172.891678 113.350639,180.293823 114.818726,188.285828 
	C110.761917,189.946136 106.972740,191.033478 103.183556,192.120819 
	C102.391861,190.696091 101.363022,189.352585 100.843033,187.834778 
	C86.503754,145.979782 72.244209,104.097458 57.883957,62.249695 
	C56.130547,57.140018 53.882710,52.200008 51.529827,47.080143 
	C50.750999,45.175507 50.306355,43.372101 49.861710,41.568691 
	C50.372746,41.303776 50.883778,41.038857 51.394814,40.773937 
	C58.873009,52.627449 66.351204,64.480965 73.987717,77.007965 
	C81.006737,90.678795 87.908813,103.654533 94.708649,116.683632 
	C97.601120,122.225861 100.279594,127.879784 103.055321,133.482941 
z"/>
<path fill="#73D16B" opacity="1.000000" stroke="none" 
	d="
M60.218742,117.050598 
	C64.491005,134.111115 68.615852,151.210495 73.097176,168.215927 
	C75.368774,176.836075 78.283661,185.286697 80.197678,194.189011 
	C79.590057,193.375427 78.853584,192.628342 78.394218,191.738251 
	C71.903297,179.160919 65.411903,166.583572 58.995827,153.967972 
	C46.915371,130.214813 34.960464,106.397430 22.793257,82.688919 
	C18.026485,73.400574 12.829108,64.333229 7.505884,55.072189 
	C6.727083,53.524666 6.270243,52.070183 5.813403,50.615704 
	C22.314831,67.092903 37.269032,84.559158 50.629868,104.162437 
	C54.088436,108.791542 57.153591,112.921066 60.218742,117.050598 
z"/>
<path fill="#A8D9F6" opacity="1.000000" stroke="none" 
	d="
M103.060951,133.010468 
	C100.279594,127.879784 97.601120,122.225861 94.708649,116.683632 
	C87.908813,103.654533 81.006737,90.678795 74.130974,77.332016 
	C80.852013,70.698914 87.588104,64.415253 94.865669,58.119049 
	C95.568001,58.151173 95.728859,58.195835 95.889717,58.240498 
	C98.246437,82.174629 100.604523,106.108620 102.954071,130.043457 
	C103.035271,130.870682 103.031013,131.706299 103.060951,133.010468 
z"/>
<path fill="#A7D9F3" opacity="1.000000" stroke="none" 
	d="
M60.155823,116.631432 
	C57.153591,112.921066 54.088436,108.791542 50.929634,104.322235 
	C52.501514,101.899612 54.167053,99.816772 55.995987,97.439857 
	C57.470554,103.501274 58.781727,109.856773 60.155823,116.631432 
z"/>
<path fill="#73D16C" opacity="1.000000" stroke="none" 
	d="
M95.831451,58.006218 
	C95.728859,58.195835 95.568001,58.151173 95.183067,57.995251 
	C94.959000,57.883991 95.035728,57.456478 95.097633,57.248333 
	C95.432983,57.226330 95.637535,57.470245 95.831451,58.006218 
z"/>
<path fill="#F14141" opacity="1.000000" stroke="none" 
	d="
M102.925529,192.363251 
	C106.972740,191.033478 110.761917,189.946136 114.873825,188.714264 
	C121.837074,187.690201 128.477585,186.810669 135.562729,185.848587 
	C142.102417,186.177185 148.197495,186.588348 154.724823,187.069946 
	C152.251785,194.229767 149.346481,201.319122 145.761795,208.706650 
	C125.808418,208.479477 107.854416,212.736969 92.512848,224.840240 
	C84.777695,230.942657 77.109741,237.405228 72.977432,246.845245 
	C64.350571,246.880905 55.723713,246.916550 46.640404,246.928085 
	C50.989613,235.187927 58.288315,225.146393 67.087982,215.733582 
	C77.726303,205.787842 89.253258,197.733856 102.925529,192.363251 
z"/>
<path fill="#FF4D4D" opacity="1.000000" stroke="none" 
	d="
M73.442146,246.909012 
	C77.109741,237.405228 84.777695,230.942657 92.512848,224.840240 
	C107.854416,212.736969 125.808418,208.479477 145.549042,209.004852 
	C143.264954,221.308258 142.147568,233.656891 145.021667,246.524902 
	C134.353577,246.999191 123.650703,247.063812 112.483810,247.177048 
	C111.564133,247.144913 111.108482,247.064178 110.258324,246.560349 
	C107.389130,238.712784 102.918747,235.221130 96.950668,236.051208 
	C92.245956,236.705597 88.493286,241.235245 88.006607,246.847107 
	C83.306694,246.889008 78.606773,246.930893 73.442146,246.909012 
M134.956116,229.064514 
	C133.764053,227.335464 132.805984,225.368103 131.334686,223.923447 
	C127.401649,220.061569 122.027573,219.985718 117.322151,223.438553 
	C114.151314,225.765335 112.656105,232.875198 114.536186,236.686142 
	C116.944397,241.567596 122.435738,243.952164 127.486900,242.309875 
	C132.872787,240.558762 134.975784,237.076569 134.956116,229.064514 
z"/>
<path fill="#F24040" opacity="1.000000" stroke="none" 
	d="
M88.471146,246.909119 
	C88.493286,241.235245 92.245956,236.705597 96.950668,236.051208 
	C102.918747,235.221130 107.389130,238.712784 109.918015,246.490189 
	C102.960030,246.885803 95.947861,246.928467 88.471146,246.909119 
z"/>
<path fill="#FFE04A" opacity="1.000000" stroke="none" 
	d="
M267.182617,229.439850 
	C261.887299,235.341064 256.543274,240.836624 251.034622,246.624390 
	C234.886749,246.965622 218.903503,247.014633 202.453918,246.540115 
	C199.901855,218.150314 223.260452,196.636734 247.160004,195.902908 
	C258.870850,203.900421 265.115540,215.193344 267.182617,229.439850 
z"/>
<path fill="#F14140" opacity="1.000000" stroke="none" 
	d="
M356.484741,246.989868 
	C369.489410,216.582962 367.282684,188.049072 346.226288,161.676880 
	C344.884399,159.996231 343.605011,158.265701 342.132477,156.263123 
	C353.107544,141.674362 363.542419,142.119690 372.982452,158.511215 
	C383.490479,176.757126 388.481659,196.163025 387.671875,217.957138 
	C385.569550,228.167343 383.564941,237.544556 381.560333,246.921753 
	C373.356018,246.967682 365.151672,247.013611 356.484741,246.989868 
z"/>
<path fill="#FFC04E" opacity="1.000000" stroke="none" 
	d="
M246.976181,195.614563 
	C223.260452,196.636734 199.901855,218.150314 201.988647,246.473282 
	C192.299423,246.972717 182.609100,247.015457 172.452637,246.991180 
	C166.883423,227.267731 175.006165,206.175568 192.110413,194.668777 
	C208.617584,183.563629 230.875961,183.831238 246.976181,195.614563 
z"/>
<path fill="#68BC5E" opacity="1.000000" stroke="none" 
	d="
M382.061279,246.976501 
	C383.564941,237.544556 385.569550,228.167343 387.728821,218.423370 
	C389.103485,216.740829 390.505035,215.550369 391.513885,214.088821 
	C397.731995,205.080795 403.837372,195.995041 410.036926,186.974106 
	C411.632416,184.652557 413.303864,181.878098 416.784637,183.625458 
	C420.100616,185.290054 419.972717,187.980988 418.852509,191.243530 
	C413.246002,207.572220 407.826904,223.965424 402.389648,240.351807 
	C401.768158,242.224915 401.445190,244.197083 400.971863,246.518433 
	C394.827362,246.952789 388.694824,246.992020 382.061279,246.976501 
z"/>
<path fill="#67BC5E" opacity="1.000000" stroke="none" 
	d="
M420.482483,246.981430 
	C424.995331,243.131302 429.896454,239.233368 434.966187,235.568710 
	C444.085327,228.976944 453.304657,222.523773 462.485901,216.018082 
	C463.025604,215.635666 463.610779,214.979691 464.154633,214.999710 
	C466.433289,215.083527 469.259094,214.665833 470.776855,215.850662 
	C471.738098,216.601044 471.492920,220.318542 470.504761,221.906006 
	C465.346039,230.193100 459.776031,238.224152 454.182831,246.633896 
	C442.993317,246.961945 431.970032,247.000351 420.482483,246.981430 
z"/>
<path fill="#F24040" opacity="1.000000" stroke="none" 
	d="
M317.485168,246.987518 
	C323.305878,239.309662 329.950104,239.094025 335.830048,246.615799 
	C329.967804,246.965210 323.957550,247.011169 317.485168,246.987518 
z"/>
<path fill="#F24040" opacity="1.000000" stroke="none" 
	d="
M351.929138,201.559280 
	C348.351044,206.740814 343.675903,208.392914 338.371552,206.596008 
	C334.549561,205.301270 331.107880,200.317642 331.109039,196.079803 
	C331.110199,191.882416 335.634735,185.884537 340.319031,185.654007 
	C343.559296,185.494492 347.456329,186.910431 350.089050,188.904327 
	C354.151764,191.981216 353.646729,196.735977 351.929138,201.559280 
z"/>
<path fill="#F24040" opacity="1.000000" stroke="none" 
	d="
M339.001251,215.997543 
	C344.506500,215.092163 349.286652,217.227386 351.578705,221.473343 
	C354.056335,226.063065 352.813171,230.143784 349.621307,233.816422 
	C346.783722,237.081512 340.947296,238.236145 336.769104,236.303391 
	C332.543304,234.348633 330.867340,230.925674 330.938019,226.255280 
	C331.020203,220.821136 333.543762,217.555420 339.001251,215.997543 
z"/>
<path fill="#73D16B" opacity="1.000000" stroke="none" 
	d="
M81.488358,197.476227 
	C81.516693,197.463089 81.460022,197.489380 81.488358,197.476227 
z"/>
<path fill="#F24040" opacity="1.000000" stroke="none" 
	d="
M134.973846,229.473999 
	C134.975784,237.076569 132.872787,240.558762 127.486900,242.309875 
	C122.435738,243.952164 116.944397,241.567596 114.536186,236.686142 
	C112.656105,232.875198 114.151314,225.765335 117.322151,223.438553 
	C122.027573,219.985718 127.401649,220.061569 131.334686,223.923447 
	C132.805984,225.368103 133.764053,227.335464 134.973846,229.473999 
z"/>
</svg>