<svg width="250" height="216" viewBox="0 0 250 216" fill="none" xmlns="http://www.w3.org/2000/svg">
<path d="M126.398 144.812C126.398 141.832 126.398 139.487 126.398 136.582C128.103 138.9 129.588 140.64 130.748 142.575C131.85 144.41 133.223 144.775 135.248 144.122C135.248 139.587 135.248 135.062 135.248 130.507C134.213 130.507 133.178 130.507 131.96 130.507C131.833 132.862 131.713 135.085 131.568 137.77C129.898 135.647 128.343 133.98 127.163 132.082C126.06 130.307 124.723 130.08 122.805 130.61C122.805 134.865 122.805 139.08 122.815 143.477C123.885 144.005 124.945 144.345 126.398 144.812Z" fill="back"/>
<path d="M140.527 138.228C140.96 142.393 145.158 145.513 149.315 144.758C153.725 143.958 155.327 141.423 154.235 136.935C152.142 136.935 150.05 136.935 147.805 136.935C147.852 137.745 147.892 138.378 147.932 139.063C148.642 139.11 149.185 139.078 149.687 139.203C150.015 139.285 150.555 139.63 150.532 139.793C150.48 140.183 150.237 140.668 149.917 140.883C148.675 141.72 146.145 141.15 144.965 139.843C143.787 138.535 143.72 136.383 144.812 135.028C145.925 133.648 147.7 133.275 149.31 134.11C149.892 134.413 150.44 134.78 151.04 135.14C151.88 134.398 152.66 133.705 153.428 133.025C151.885 130.695 149.617 129.77 146.447 130.215C142.467 131.145 140.127 134.378 140.527 138.228Z" fill="black"/>
<path d="M103.335 136.745C105.3 134.542 107.142 132.477 109.232 130.135C107.152 130.095 105.447 129.473 104.067 131.143C102.947 132.5 101.685 133.743 100.125 135.423C100.125 133.453 100.125 132.015 100.125 130.48C98.8975 130.48 97.8725 130.48 96.77 130.48C96.77 135.18 96.77 139.748 96.77 144.333C97.92 144.333 98.9 144.333 100.005 144.333C100.11 142.688 100.21 141.143 100.308 139.6C100.515 139.518 100.723 139.433 100.93 139.35C101.805 140.433 102.715 141.487 103.55 142.602C105.13 144.71 105.96 144.972 108.77 143.992C108.332 143.367 107.922 142.785 107.438 142.075C106.025 140.217 104.685 138.487 103.335 136.745Z" fill="black"/>
<path d="M161.64 136.283C162.292 136.733 162.928 137.538 163.6 137.573C166.403 137.72 169.217 137.618 172.03 137.648C173.162 137.66 174.245 137.355 174.083 136.118C174.013 135.58 172.807 134.835 172.087 134.798C169.217 134.648 166.335 134.74 163.283 134.748C162.618 135.263 162.13 135.773 161.64 136.283Z" fill="black"/>
<path d="M147.905 130.315C147.45 130.315 146.975 130.35 146.478 130.42C142.658 131.312 140.34 134.443 140.73 138.205C140.928 140.12 141.98 141.92 143.615 143.148C145.275 144.393 147.338 144.905 149.275 144.553C151.413 144.165 152.838 143.385 153.63 142.165C154.425 140.942 154.57 139.297 154.07 137.137H148.023L148.125 138.865C148.28 138.873 148.425 138.878 148.565 138.883C148.998 138.898 149.37 138.91 149.738 139C149.988 139.062 150.788 139.438 150.738 139.818C150.683 140.233 150.423 140.79 150.035 141.053C148.723 141.935 146.09 141.392 144.815 139.98C143.575 138.605 143.503 136.325 144.655 134.898C145.843 133.425 147.708 133.045 149.408 133.925C149.813 134.135 150.19 134.37 150.593 134.62C150.733 134.707 150.875 134.795 151.02 134.885L153.16 132.99C151.91 131.2 150.183 130.315 147.905 130.315Z" fill="black"/>
<path d="M123.02 143.35C123.972 143.805 124.928 144.122 126.19 144.53V135.955L126.562 136.46C127.105 137.197 127.625 137.877 128.12 138.522C129.195 139.927 130.125 141.14 130.923 142.467C131.91 144.112 133.11 144.555 135.04 143.97V130.715H132.152L131.742 138.33L131.405 137.9C130.88 137.232 130.367 136.61 129.87 136.01C128.807 134.722 127.803 133.505 126.988 132.192C126.048 130.682 124.928 130.275 123.01 130.77C123.01 134.93 123.01 139.052 123.02 143.35Z" fill="black"/>
<path d="M113.832 130.69V144.492C114.99 144.125 115.937 143.815 116.892 143.363C116.9 139.03 116.9 134.87 116.9 130.69H113.832Z" fill="black"/>
<path d="M100.997 139.1L101.092 139.217C101.365 139.552 101.637 139.885 101.912 140.22C102.515 140.95 103.137 141.705 103.715 142.475C105.21 144.47 105.955 144.717 108.442 143.882C108.06 143.34 107.693 142.812 107.265 142.187C105.873 140.362 104.55 138.655 103.217 136.932L103.065 136.735L108.785 130.322C108.495 130.307 108.213 130.285 107.938 130.262C106.43 130.137 105.242 130.042 104.225 131.272C103.462 132.197 102.645 133.055 101.7 134.05C101.252 134.52 100.78 135.017 100.275 135.56L99.9175 135.945V130.682H96.975V144.122H99.81L100.11 139.452L100.997 139.1Z" fill="black"/>
<path d="M82.0675 137.695C82.47 137.695 82.855 137.718 83.23 137.738C84.0125 137.783 84.7525 137.825 85.395 137.635C85.8925 137.49 86.3225 137.063 86.7775 136.61C86.92 136.468 87.065 136.323 87.215 136.188C87.06 136.068 86.9075 135.935 86.7575 135.808C86.32 135.43 85.865 135.04 85.44 135.013C82.6725 134.843 79.985 134.848 77.455 135.025C77.0075 135.058 76.5375 135.483 76.0825 135.895C75.9275 136.035 75.7675 136.18 75.605 136.313C75.765 136.44 75.92 136.578 76.0725 136.713C76.555 137.138 77.0125 137.54 77.505 137.625C78.48 137.795 79.505 137.76 80.5925 137.725C81.0725 137.71 81.5625 137.695 82.0675 137.695Z" fill="black"/>
<path d="M196.005 101.458L196.2 101.718C196.447 102.048 196.687 102.37 196.92 102.688C197.405 103.343 197.87 103.97 198.352 104.583C199.407 105.92 200.458 107.263 201.508 108.605C204.633 112.6 207.865 116.733 211.202 120.66C212.13 121.753 214.065 122.443 215.495 122.56C218.705 122.823 222.18 122.823 226.12 122.558C227.547 122.46 229.532 121.755 229.727 121.095C230.045 120.023 229.3 118.178 228.405 117.128C222.87 110.623 216.833 103.718 208.833 94.7425C207.47 93.2125 207.485 92.1475 208.885 90.6675C216.095 83.0525 222.587 76.0625 228.732 69.3C229.49 68.465 230.18 66.8225 229.872 66.165C229.512 65.3925 227.9 64.725 226.753 64.665C222.87 64.465 218.99 64.475 215.22 64.695C213.933 64.77 212.423 65.4225 211.633 66.25C209.245 68.75 206.93 71.4025 204.693 73.9675C203.678 75.13 202.665 76.2925 201.64 77.4475C199.977 79.3175 198.303 81.1775 196.628 83.0375L194.227 85.7025L193.125 85.1025V64.885H177.633V122.5H193.273V110.683C193.278 110.218 193.27 109.755 193.262 109.295C193.22 106.493 193.18 103.843 195.747 101.67L196.005 101.458Z" fill="black"/>
<path d="M69.4325 82.48C72.4625 82.9175 77.2675 76.61 77.55 73.3125C77.7475 70.9975 73.4 65.265 73.4 65.265C73.0325 64.4675 71.385 63.7775 70.215 63.715C66.25 63.51 62.2875 63.5175 58.4375 63.745C57.1225 63.8225 55.58 64.4975 54.7725 65.35C52.3325 67.93 49.97 70.67 47.685 73.32C46.65 74.52 45.6125 75.7225 44.5675 76.9125C42.87 78.845 41.16 80.765 39.4475 82.685L36.9975 85.4375L35.8725 84.8175V63.9375H20.0475V123.44H36.02V111.235C36.025 110.755 36.0175 110.278 36.01 109.803C35.9675 106.908 35.925 104.172 38.55 101.93L38.8025 101.712L39 101.98C39.2525 102.32 39.4975 102.655 39.7375 102.98C40.2325 103.655 40.7075 104.302 41.2 104.937C42.2775 106.32 43.35 107.705 44.4225 109.092C47.615 113.22 50.915 117.487 54.325 121.542C55.2725 122.67 57.2475 123.382 58.7075 123.502C61.985 123.772 65.535 123.772 69.56 123.5C70.985 123.402 72.945 122.705 73.2225 122.04C75.0125 120.302 76.765 116.085 76.6175 114.273C76.3525 110.975 71.8275 104.667 68.9725 105.105C67.6975 105.3 66.0275 108.45 65.245 110.08C61.34 105.535 57.015 100.575 51.905 94.7775C50.5125 93.1975 50.5275 92.0975 51.96 90.5675C56.6625 85.545 61.065 80.7875 65.2675 76.185L65 76.545C65.0025 76.545 67.6 82.215 69.4325 82.48Z" fill="white"/>
<path d="M174.783 89.7625C174.035 81.085 170.08 73.82 163.648 69.31C159.323 66.2775 154.217 64.7275 148.792 64.7275C146.177 64.7275 143.49 65.0875 140.78 65.815C136.635 66.9275 133.11 69.2775 129.352 73.4375C127.395 75.6025 127.53 78.0025 127.673 80.54C127.713 81.25 127.755 81.985 127.743 82.705C127.643 89.8725 127.648 97.7475 127.76 107.49L127.765 107.997C127.778 109.72 127.79 111.67 128.593 112.935C131.89 118.145 137.048 121.757 143.115 123.105C149.773 124.585 156.925 123.297 162.745 119.572C169.372 115.332 173.285 108.777 174.712 99.53C174.725 98.51 174.765 97.47 174.803 96.45C174.888 94.135 174.97 91.94 174.783 89.7625ZM154.747 105.752C152.485 107.437 149.17 107.7 145.223 106.537C141.943 104.805 140.478 102.272 140.613 98.565C140.67 96.9875 140.655 95.385 140.643 93.835C140.63 92.43 140.618 90.9775 140.658 89.5525C140.805 84.4825 144.01 81.345 149.033 81.345C149.068 81.345 149.102 81.345 149.137 81.345C154.422 81.39 157.93 84.635 158.078 89.6125C158.135 91.585 158.123 93.5975 158.11 95.5425L158.1 97.3225C158.085 101.217 156.925 104.132 154.747 105.752Z" fill="black"/>
<path d="M123.102 73.4375C119.345 69.2775 115.82 66.9275 111.675 65.815C108.963 65.0875 106.275 64.7275 103.662 64.7275C98.235 64.7275 93.13 66.2775 88.8075 69.31C82.3725 73.82 78.42 81.0825 77.6725 89.7625C77.485 91.94 77.5675 94.1325 77.655 96.455C77.6925 97.4775 77.7325 98.5175 77.745 99.535C79.17 108.78 83.085 115.335 89.7125 119.577C95.5325 123.302 102.685 124.587 109.342 123.11C115.41 121.762 120.567 118.15 123.865 112.94C124.667 111.675 124.68 109.722 124.692 108.002L124.697 107.495C124.807 97.7525 124.812 89.8775 124.715 82.71C124.705 81.99 124.745 81.255 124.785 80.545C124.925 78.0025 125.057 75.6025 123.102 73.4375ZM107.23 106.537C103.283 107.7 99.9675 107.435 97.705 105.752C95.5275 104.132 94.3675 101.217 94.355 97.3275L94.345 95.5475C94.3325 93.6025 94.3175 91.59 94.3775 89.6175C94.525 84.6425 98.0325 81.3975 103.317 81.35C103.352 81.35 103.387 81.35 103.422 81.35C108.445 81.35 111.653 84.4875 111.797 89.5575C111.84 90.9825 111.825 92.435 111.812 93.84C111.8 95.39 111.785 96.9925 111.842 98.57C111.975 102.272 110.51 104.805 107.23 106.537Z" fill="black"/>
<path d="M150.672 67.4875C156.1 67.4875 144.178 63.982 148.5 67.0145C150.705 68.5595 167.767 72.7725 169.36 74.9125C169.832 73.655 170.305 72.3975 170.775 71.14C171.17 70.085 171.173 69.8025 170.82 69.6425C170.803 69.635 170.782 69.63 170.762 69.6225C168.77 68.9125 166.775 68.205 164.782 67.4875C163.49 67.0225 162.205 66.5375 160.898 66.055C158.255 65.055 155.63 64.06 153.005 63.0675C152.23 62.775 151.452 62.485 150.672 62.205C148.962 61.5875 147.25 60.98 145.54 60.3625C145.29 60.2725 145.062 60.1275 144.812 60.035C144.57 59.9425 144.388 60.14 144.095 60.8225C143.91 61.2575 143.74 61.71 143.575 62.1575C143.162 63.2675 142.755 64.375 142.345 65.485C144.525 65.0125 148.562 67.4875 150.672 67.4875Z" fill="black"/>
<path d="M162.492 63.7075C159.69 62.67 156.905 61.6425 154.12 60.61C153.695 60.4525 153.69 60.4325 153.85 60.0075C154.673 57.8 155.485 55.5875 156.322 53.385C156.55 52.7875 156.303 52.285 155.91 51.885C155.478 51.4425 154.648 51.47 154.14 51.875C154.1 51.9075 154.057 51.945 154.01 51.9625C153.802 52.0475 153.69 52.215 153.615 52.41C153.513 52.675 153.415 52.9425 153.315 53.21C152.633 55.0125 151.953 56.8125 151.268 58.6125C151.19 58.815 151.1 59.015 151.018 59.2175C150.965 59.345 150.867 59.375 150.742 59.34C150.652 59.315 150.565 59.29 150.477 59.2575C148.962 58.695 147.445 58.1325 145.93 57.5725C145.837 57.5375 145.74 57.52 145.643 57.4925C145.458 57.4425 145.353 57.2925 145.39 57.1075C145.413 56.9925 145.46 56.8825 145.497 56.77C145.55 56.6125 145.598 56.455 145.655 56.3C146.038 55.265 146.422 54.23 146.807 53.195C146.827 53.14 146.858 53.0875 146.883 53.0325C146.995 52.805 146.973 52.6925 146.773 52.535C146.613 52.4075 146.44 52.295 146.288 52.16C145.998 51.91 145.703 51.665 145.44 51.3875C145.243 51.18 145.073 50.9375 144.925 50.69C144.738 50.38 144.572 50.055 144.415 49.73C144.307 49.505 144.242 49.26 144.137 49.035C143.93 48.5975 143.895 48.12 143.792 47.6575C143.715 47.32 143.74 46.9625 143.688 46.6175C143.615 46.1425 143.74 45.6825 143.755 45.215C143.76 45.025 143.775 44.825 143.84 44.6475C144.077 43.9825 144.3 43.305 144.602 42.67C144.822 42.21 145.14 41.7875 145.46 41.385C145.775 40.99 146.13 40.62 146.508 40.28C146.843 39.9775 147.202 39.7025 147.602 39.4775C148.04 39.23 148.478 38.985 148.958 38.835C149.395 38.6975 149.837 38.5525 150.305 38.5425C150.382 38.54 150.462 38.52 150.54 38.505C150.592 38.495 150.643 38.4725 150.695 38.4725C151.103 38.48 151.512 38.47 151.917 38.51C152.37 38.5525 152.83 38.6025 153.268 38.7175C153.798 38.8575 154.307 39.065 154.825 39.2525C155.28 39.4175 155.723 39.6125 156.13 39.8775C156.375 40.0375 156.607 40.21 156.855 40.365C157.197 40.5775 157.28 40.5475 157.542 40.255C157.762 40.0125 158.01 39.7925 158.253 39.5675C158.46 39.375 158.672 39.1875 158.887 39.005C159.247 38.6975 159.615 38.395 160.045 38.1875C160.39 38.02 160.735 37.8575 161.087 37.71C161.287 37.625 161.498 37.565 161.708 37.51C162.028 37.4275 162.345 37.3375 162.673 37.295C163.228 37.2225 163.788 37.1625 164.348 37.1325C164.863 37.105 165.375 37.19 165.887 37.2275C166.617 37.28 167.287 37.5075 167.947 37.7825C168.51 38.015 169.035 38.32 169.538 38.675C169.96 38.975 170.365 39.2875 170.715 39.67C170.947 39.9225 171.215 40.145 171.425 40.415C171.708 40.78 171.962 41.1675 172.2 41.5625C172.39 41.88 172.543 42.22 172.693 42.5575C172.808 42.8225 172.895 43.1 172.99 43.375C173.07 43.605 173.145 43.8375 173.215 44.07C173.272 44.26 173.33 44.45 173.363 44.6425C173.42 44.9675 173.46 45.295 173.503 45.62C173.538 45.8825 173.553 46.145 173.6 46.405C173.623 46.53 173.692 46.6525 173.762 46.7625C173.792 46.8075 173.885 46.8375 173.945 46.8325C174.535 46.795 175.12 46.825 175.695 46.9775C176.233 47.12 176.755 47.3 177.275 47.5075C177.892 47.7525 178.453 48.0825 178.97 48.4875C179.298 48.745 179.62 49.0075 179.925 49.29C180.093 49.445 180.223 49.6425 180.365 49.825C180.775 50.3475 181.12 50.91 181.375 51.5225C181.555 51.9525 181.757 52.3775 181.822 52.85C181.862 53.13 181.953 53.4 182.018 53.6775C182.03 53.735 182.032 53.795 182.04 53.8525C182.06 54.0225 182.082 54.1925 182.102 54.36C182.107 54.405 182.12 54.4525 182.115 54.4975C182.078 55.025 182.08 55.55 182.02 56.0775C181.94 56.76 181.717 57.39 181.462 58.015C181.407 58.1475 181.328 58.2725 181.253 58.3975C181.13 58.6025 180.993 58.7975 180.883 59.01C180.643 59.4825 180.292 59.88 179.935 60.255C179.505 60.7075 179.037 61.1325 178.492 61.4525C178.18 61.635 177.843 61.775 177.523 61.9475C177.123 62.165 176.678 62.2425 176.258 62.395C176.085 62.4575 175.897 62.485 175.715 62.5025C175.353 62.5375 174.99 62.55 174.628 62.585C174.413 62.605 174.198 62.6425 173.983 62.6825C173.84 62.71 173.792 62.835 173.745 62.9525C173.405 63.8225 173.067 64.6925 172.727 65.56C172.547 66.0225 172.365 66.485 172.18 66.9425C172.087 67.1725 171.995 67.2225 171.75 67.1875C171.685 67.1775 171.62 67.16 171.56 67.1375C171.23 67.015 170.902 66.8925 170.575 66.7675C169.715 66.4375 168.858 66.105 168 65.77C167.605 65.615 167.213 65.455 166.82 65.3C166.613 65.2175 166.543 65.13 166.58 64.905C166.62 64.6725 166.688 64.44 166.765 64.2175C166.93 63.7425 167.108 63.275 167.28 62.805C167.76 61.5 168.245 60.1975 168.723 58.8925C168.82 58.625 168.908 58.355 168.988 58.0825C169.075 57.7775 169.068 57.48 168.955 57.17C168.87 56.935 168.773 56.7275 168.61 56.5375C168.31 56.19 167.995 56.0925 167.55 56.2225C166.935 56.4025 166.527 56.78 166.307 57.3925C165.657 59.1925 164.988 60.985 164.33 62.78C164.193 63.1525 164.073 63.5325 163.938 63.905C163.863 64.11 163.828 64.1275 163.613 64.105C163.528 64.095 163.443 64.08 163.363 64.05C163.075 63.9425 162.792 63.8275 162.492 63.7075Z" fill="black"/>
</svg>
